<?xml version="1.0" encoding="UTF-8"?>
<!DOCTYPE svg PUBLIC "-//W3C//DTD SVG 1.1//EN" "http://www.w3.org/Graphics/SVG/1.1/DTD/svg11.dtd">
<svg xmlns="http://www.w3.org/2000/svg" version="1.1" width="512px" height="512px" style="shape-rendering:geometricPrecision; text-rendering:geometricPrecision; image-rendering:optimizeQuality; fill-rule:evenodd; clip-rule:evenodd" xmlns:xlink="http://www.w3.org/1999/xlink">
<g><path style="opacity:0.993" fill="#000000" d="M 295.5,13.5 C 310.154,12.7344 319.321,19.4011 323,33.5C 323.667,181.5 323.667,329.5 323,477.5C 317.921,493.626 307.088,499.793 290.5,496C 232.223,455.389 174.223,414.389 116.5,373C 86.8333,372.667 57.1667,372.333 27.5,372C 17.9246,370.13 11.4246,364.63 8,355.5C 7.33333,288.833 7.33333,222.167 8,155.5C 11.4246,146.37 17.9246,140.87 27.5,139C 57.1667,138.667 86.8333,138.333 116.5,138C 173.167,97.6667 229.833,57.3333 286.5,17C 289.459,15.3957 292.459,14.2291 295.5,13.5 Z"/></g>
<g><path style="opacity:0.978" fill="#000000" d="M 384.5,184.5 C 390.521,184.671 396.188,186.171 401.5,189C 412.014,199.681 422.681,210.181 433.5,220.5C 444.319,210.181 454.986,199.681 465.5,189C 482.643,180.656 495.143,185.156 503,202.5C 504.31,209.871 503.31,216.871 500,223.5C 489.319,234.014 478.819,244.681 468.5,255.5C 478.819,266.319 489.319,276.986 500,287.5C 508.43,308.642 501.597,321.642 479.5,326.5C 474.452,326.16 469.785,324.66 465.5,322C 454.986,311.319 444.319,300.819 433.5,290.5C 422.681,300.819 412.014,311.319 401.5,322C 386.467,329.528 374.3,326.361 365,312.5C 361.427,303.839 362.094,295.506 367,287.5C 377.681,276.986 388.181,266.319 398.5,255.5C 388.181,244.681 377.681,234.014 367,223.5C 358.287,203.767 364.121,190.767 384.5,184.5 Z"/></g>
</svg>

