<svg width="184" height="106" viewBox="0 0 184 106" fill="none" xmlns="http://www.w3.org/2000/svg">
<path fill-rule="evenodd" clip-rule="evenodd" d="M10.6034 3.559C15.7354 14.322 27.2114 25.661 38.0904 30.719C44.4264 33.665 46.7654 34.193 55.5904 34.669C69.4684 35.417 76.0524 33.695 96.2764 24.03C117.381 13.944 121.955 12.604 135.276 12.6C143.83 12.598 146.61 12.985 150.276 14.688C160.479 19.428 165.129 27.918 166.318 43.983C167.592 61.203 171.641 72.2 179.997 81.133C183.569 84.951 184.143 85.998 182.663 85.99C179.12 85.972 170.356 81.133 166.042 76.813C160.94 71.704 158.974 67.821 155.602 56.19C153.232 48.016 150.423 41.291 150.301 43.5C150.27 44.05 149.773 43.825 149.195 43C148.373 41.826 148.282 41.989 148.778 43.75C149.621 46.748 147.887 46.636 146.505 43.603C144.786 39.831 138.867 35.927 133.584 35.082C128.719 34.303 129.155 33.429 134.776 32.693C136.426 32.477 135.076 32.235 131.776 32.155C124 31.968 120.326 33.052 106.882 39.499C93.1914 46.063 87.8694 47.63 73.2554 49.397C66.9414 50.161 63.1144 50.834 64.7484 50.893C67.6894 50.999 67.7004 51.02 65.7484 52.874C63.4784 55.03 52.1164 59.464 42.4284 61.973C38.7694 62.92 34.2784 64.613 32.4464 65.735L29.1174 67.775L31.4194 69.388C34.0824 71.253 36.7294 71.543 35.6864 69.854C35.1944 69.059 35.7244 68.896 37.4194 69.321C52.0724 72.999 64.1794 69.56 84.2764 56.011C94.9114 48.841 95.8134 48.322 94.8024 49.957C93.3084 52.375 96.6204 53.025 99.0074 50.783C100.25 49.615 101.489 48.88 101.759 49.15C102.602 49.993 91.0814 60.842 84.4174 65.479C80.9204 67.913 74.6204 71.318 70.4174 73.047C56.0264 78.967 54.2044 81.631 65.1784 80.711C75.9194 79.811 89.1004 71.878 98.8844 60.426C104.423 53.942 106.569 53.26 102.411 59.304C98.2564 65.343 86.9024 75.722 81.6714 78.263C79.2544 79.438 77.2764 80.796 77.2764 81.281C77.2764 82.24 82.4334 79.334 88.7764 74.8C95.1004 70.28 105.296 59.85 104.594 58.619C104.243 58.004 104.316 57.826 104.757 58.224C105.197 58.622 106.875 57.497 108.485 55.724L111.412 52.5L109.447 56.5C106.52 62.457 96.0994 73.299 88.3454 78.454C84.5844 80.954 81.0054 83 80.3924 83C78.7134 83 79.0504 87.699 80.7764 88.362C81.6014 88.678 82.2764 88.537 82.2764 88.048C82.2764 87.559 83.7394 86.862 85.5264 86.498C90.8444 85.418 98.3864 79.565 104.776 71.558C110.975 63.791 113.573 62.93 108.731 70.248C104.119 77.217 97.0054 84.199 92.4434 86.234C90.0604 87.297 88.3354 88.392 88.6104 88.667C88.8854 88.942 91.0984 88.288 93.5284 87.213C96.7994 85.766 100.392 82.408 107.361 74.286C112.539 68.251 116.931 63.708 117.121 64.191C117.599 65.407 107.645 78.403 101.417 84.694C96.0174 90.149 94.9284 93 98.2454 93C99.5844 93 100.029 92.52 99.6384 91.5C99.2274 90.43 99.7384 89.995 101.419 89.984C105.929 89.952 111.637 85.681 116.118 78.987C118.506 75.419 121.131 72.347 121.95 72.161C123.203 71.876 123.171 72.272 121.752 74.661L120.065 77.5L122.254 74.75C124.839 71.503 125.847 71.279 125.847 73.952C125.847 75.026 125.647 75.704 125.401 75.459C125.156 75.213 123.409 77.597 121.52 80.756C119.631 83.915 117.228 87.429 116.181 88.564C115.133 89.7 114.276 91.837 114.276 93.314C114.276 96.138 115.696 96.955 116.583 94.642C116.87 93.895 118.566 92.992 120.352 92.635C124.237 91.858 129.962 86.134 133.943 79.046C135.501 76.272 137.108 74.002 137.513 74.001C138.325 74 133.932 84.409 132.059 86.924C130.994 88.354 131.045 88.356 132.607 86.938C133.554 86.079 136.105 82.029 138.276 77.938C140.447 73.847 142.235 71.026 142.25 71.668C142.264 72.311 142.577 73.622 142.946 74.582C143.368 75.683 143.227 76.088 142.563 75.678C141.957 75.303 140.631 77.071 139.436 79.849C138.295 82.502 135.824 86.956 133.945 89.749C129.797 95.913 128.686 101 131.489 101C134.51 101 140.815 97.336 143.706 93.901C147.369 89.547 151.5 81.172 150.657 79.808C150.217 79.096 150.424 78.973 151.228 79.471C152.187 80.063 152.329 79.516 151.819 77.195C151.276 74.725 151.544 73.927 153.212 73.034C154.964 72.096 155.276 72.22 155.276 73.85C155.276 77.812 151.68 86.711 147.641 92.745C144.914 96.819 143.643 99.687 143.985 100.995C144.559 103.189 147.276 103.785 147.276 101.716C147.276 101.009 148.641 99.625 150.31 98.639C151.978 97.653 155.867 93.495 158.95 89.398C162.034 85.3 164.725 82.116 164.93 82.32C165.593 82.984 162.148 90.409 159.627 93.75C158.278 95.538 157.594 97 158.106 97C158.619 97 160.24 95.425 161.708 93.5C163.176 91.575 164.182 90 163.942 90C163.702 90 164.692 88.696 166.141 87.103C167.59 85.509 168.915 84.336 169.085 84.495C169.848 85.21 165.909 92.741 162.765 96.579C158.807 101.409 152.607 104.75 146.776 105.195C143.093 105.476 142.752 105.288 142.467 102.826C142.162 100.187 142.113 100.17 138.749 101.576C136.874 102.359 133.505 103 131.263 103H127.185L127.834 99.54L128.484 96.08L125.136 97.04C120.976 98.233 115.229 98.256 113.383 97.087C112.598 96.59 112.218 95.331 112.513 94.204C113.013 92.291 112.883 92.266 109.574 93.649C107.53 94.503 103.793 94.973 100.445 94.797C95.4204 94.534 94.7834 94.261 94.8404 92.397C94.9004 90.415 94.5144 90.322 88.1704 90.775C79.5884 91.389 75.8414 90.545 76.7814 88.208C77.1594 87.269 77.6904 85.957 77.9624 85.294C78.3344 84.386 77.6324 84.324 75.1234 85.044C67.6324 87.192 56.4334 85.031 54.2884 81.022C53.6524 79.833 51.5564 79.073 47.6464 78.614C38.5754 77.548 25.2764 70.703 25.2764 67.1C25.2764 66.205 23.4384 64.353 21.1904 62.986C14.1964 58.73 5.11545 45.284 2.71245 35.626L1.99744 32.752L6.64944 35.478C14.0854 39.836 15.1055 38.027 8.83545 31.604C2.26445 24.874 -0.165558 18.593 0.161438 9.183L0.276443 5.866L5.02644 9.639C7.63945 11.714 10.2964 13.789 10.9334 14.251C11.5694 14.712 11.0174 12.482 9.70644 9.295C7.24744 3.315 6.67145 0 8.09145 0C8.53944 0 9.66943 1.601 10.6034 3.559ZM2.90645 14.25C3.84245 20.335 7.49245 27.059 12.1395 31.257C17.0345 35.68 20.0844 37.307 27.5394 39.474C30.6944 40.391 33.2764 41.271 33.2764 41.428C33.2764 42.086 14.4974 40.859 11.3324 39.995C9.43845 39.477 7.66644 39.277 7.39444 39.549C6.63445 40.308 11.1124 49 12.2634 49C12.8204 49 13.2764 49.704 13.2764 50.565C13.2764 51.426 15.5564 54.351 18.3434 57.065C22.8094 61.416 23.9154 62 27.6764 62C30.5144 62 31.9435 61.564 31.9435 60.698C31.9435 59.87 31.0024 59.528 29.3594 59.76C26.2354 60.202 16.2774 52.457 12.9524 47C10.9964 43.789 11.3304 43.959 17.0084 49.06C26.4414 57.535 26.7004 57.62 37.0094 55.61C49.3074 53.213 53.6344 51.844 52.0624 50.846C51.0884 50.229 51.1634 50.027 52.3734 50.015C53.9284 50 58.4714 53.3 58.0084 54.108C57.8804 54.33 58.5534 53.609 59.5044 52.506C61.9054 49.718 61.7054 49 58.5294 49C53.9414 49 40.7424 44.102 34.5844 40.113C28.2134 35.987 19.4324 26.915 15.9814 20.893C14.7684 18.777 12.6465 16.575 11.2645 16C9.88245 15.425 7.40746 13.856 5.76445 12.513C4.12144 11.17 2.65845 10.056 2.51445 10.036C2.37045 10.016 2.54645 11.913 2.90645 14.25ZM138.276 15.699C139.651 15.934 142.238 16.512 144.026 16.983C145.814 17.454 147.276 17.456 147.276 16.989C147.276 15.966 144.042 15.272 139.276 15.272C136.837 15.272 136.534 15.402 138.276 15.699ZM119.864 16.978C115.611 18.065 105.076 22.295 96.4544 26.378C87.8314 30.46 78.7514 34.318 76.2764 34.95C73.8014 35.582 71.1014 36.362 70.2764 36.683C69.4514 37.004 64.9004 37.172 60.1634 37.055C52.3084 36.861 51.5054 37.018 51.0294 38.835C50.3764 41.334 51.8964 41.779 63.7764 42.566C70.3094 42.999 74.9694 42.704 80.7764 41.488C94.4864 38.619 94.2314 38.632 90.2764 41.003L86.7764 43.1L90.8704 42.563C93.1224 42.268 99.7874 39.722 105.683 36.906C118.258 30.899 124.629 29.028 132.566 29.012C145.278 28.986 153.43 37.638 157.759 55.75C159.524 63.138 161.034 65.856 159.842 59.5C158.878 54.362 160.814 55.196 162.7 60.731C164.633 66.404 170.138 75.733 171.967 76.435C173.9 77.177 173.557 75.281 171.359 73.083C170.305 72.029 169.743 70.832 170.109 70.423C170.476 70.014 170.233 69.991 169.569 70.372C168.083 71.225 164.607 65.041 166.053 64.117C166.665 63.726 166.536 60.566 165.701 55.5C164.975 51.1 164.358 45.827 164.329 43.781C164.292 41.151 163.895 40.209 162.973 40.563C162.131 40.886 160.843 39.067 159.333 35.425C156.565 28.745 151.611 23.478 145.596 20.817C140.756 18.677 129.725 18.268 122.776 19.972C113.395 22.272 114.489 20.21 124.276 17.147C132.651 14.525 129.869 14.419 119.864 16.978ZM7.74445 19.571C9.68144 23.168 15.4064 28.416 22.7584 33.336C26.9004 36.107 26.4285 36.758 21.5914 34.944C14.5934 32.319 7.96643 25.709 5.35744 18.75C3.87843 14.808 5.47444 15.356 7.74445 19.571ZM21.3254 24.563C31.3564 37.565 45.6794 45.167 62.4924 46.411L69.7764 46.95L61.6534 45.509C52.9784 43.969 42.7304 40.543 41.6704 38.828C41.2724 38.185 41.7444 38 42.9014 38.345C47.4894 39.715 50.2764 40.165 50.2764 39.537C50.2764 38.032 47.4675 36.224 42.6324 34.618C39.8284 33.687 34.9524 31.37 31.7974 29.47C28.6414 27.57 25.5464 26.309 24.9184 26.668C24.2904 27.027 24.1234 26.939 24.5464 26.473C25.3354 25.606 18.2754 17.667 17.4504 18.493C17.1994 18.744 18.9434 21.476 21.3254 24.563ZM157.093 25.217C157.81 25.934 158.276 25.993 158.276 25.367C158.276 24.798 157.976 24.033 157.609 23.667C157.243 23.3 156.71 23.233 156.426 23.517C156.142 23.801 156.442 24.566 157.093 25.217ZM122.276 36.369C122.276 36.713 120.649 38.796 118.66 40.997C116.671 43.199 115.433 44.994 115.91 44.986C118.447 44.946 121.171 43.64 120.61 42.732C120.255 42.157 120.446 41.987 121.038 42.353C121.626 42.717 123.271 42.572 124.692 42.032C126.113 41.492 127.269 41.376 127.261 41.775C127.239 42.788 125.31 45.677 125.291 44.724C125.283 44.298 123.975 44.622 122.384 45.444C119.702 46.831 116.553 52.61 117.799 53.857C118.388 54.445 127.395 50.023 131.185 47.285C136.001 43.807 132.784 48.38 127.701 52.239C123.576 55.37 122.832 56.426 123.123 58.739C123.314 60.257 123.631 61.666 123.826 61.87C124.533 62.604 134.401 54.703 136.947 51.364C138.382 49.484 139.754 48.144 139.996 48.387C140.785 49.176 138.099 53.274 133.736 57.939L129.467 62.503L131.175 65.806L132.883 69.108L137.83 63.756C140.55 60.812 143.578 56.902 144.557 55.066C145.537 53.231 146.638 52.029 147.005 52.396C147.372 52.763 146.354 55.498 144.744 58.475L141.817 63.887L144.046 66.903C145.273 68.562 146.276 70.387 146.276 70.96C146.276 71.532 146.749 72 147.327 72C148.793 72 151.276 65.694 151.276 61.973C151.276 60.167 151.692 59.139 152.276 59.5C154.856 61.095 152.463 71.54 148.642 75.361C145.566 78.437 144.276 78.003 144.276 73.891C144.276 72.246 143.573 69.541 142.714 67.88L141.152 64.86L136.664 68.996C131.81 73.47 129.934 73.712 129.496 69.922C128.693 62.976 128.577 62.847 124.634 64.495C122.653 65.323 120.883 66 120.701 66C120.519 66 120.638 63.737 120.966 60.97L121.562 55.941L118.854 56.97C115.457 58.262 112.276 58.298 112.276 57.044C112.276 56.519 113.401 54.431 114.776 52.405C118.042 47.592 117.932 46.951 114.033 48.07C106.273 50.295 104.991 48.046 111.563 43.737C113.88 42.218 117.239 39.797 119.026 38.359C120.813 36.921 122.276 36.025 122.276 36.369ZM9.77644 41C10.1164 41.55 9.91745 42 9.33545 42C8.75345 42 8.27644 41.55 8.27644 41C8.27644 40.45 8.47444 40 8.71744 40C8.96043 40 9.43645 40.45 9.77644 41ZM83.0584 59.989C80.4634 61.806 78.6204 63.747 78.9624 64.301C79.3194 64.879 79.0844 65 78.4124 64.584C77.7674 64.186 75.6344 64.852 73.6724 66.064C71.7104 67.277 67.1054 69.242 63.4404 70.432C59.7754 71.621 56.6644 73.136 56.5264 73.797C56.2104 75.316 55.9704 75.344 62.3694 73.128C70.6154 70.272 81.2364 64.745 80.5654 63.659C80.2364 63.126 80.4834 63.01 81.1134 63.399C82.4064 64.198 89.7364 59.464 92.7764 55.866L94.7764 53.5L92.6974 55.25C89.4924 57.949 88.6454 57.321 91.3484 54.25L93.7694 51.5L90.7724 54.092C89.1244 55.517 85.6534 58.171 83.0584 59.989ZM46.2764 57.031C49.1184 57.762 49.7374 57.555 48.8754 56.16C48.5454 55.625 47.2624 55.458 46.0254 55.787C43.7874 56.384 43.7884 56.39 46.2764 57.031ZM161.154 66.675C162.333 68.702 162.617 68.053 161.652 65.539C161.31 64.645 160.818 64.124 160.561 64.382C160.303 64.639 160.57 65.671 161.154 66.675ZM168.154 67.675C169.333 69.702 169.617 69.053 168.652 66.539C168.31 65.645 167.818 65.124 167.561 65.382C167.303 65.639 167.57 66.671 168.154 67.675ZM164.276 72.378C164.276 72.585 165.064 73.373 166.026 74.128C167.612 75.371 167.647 75.336 166.404 73.75C165.097 72.084 164.276 71.555 164.276 72.378ZM152.593 76.188C152.912 76.985 153.149 76.748 153.197 75.583C153.24 74.529 153.004 73.939 152.672 74.271C152.34 74.603 152.304 75.466 152.593 76.188ZM148.816 81.75C148.16 84.414 144.652 90.809 142.026 94.123C140.388 96.192 134.19 99.991 132.445 99.996C131.714 99.998 133.611 97.719 136.662 94.93C139.713 92.142 143.607 87.417 145.316 84.43C148.754 78.421 149.84 77.589 148.816 81.75ZM110.685 89.743C111.379 90.436 113.276 89.027 113.276 87.819C113.276 87.155 112.702 87.231 111.752 88.02C110.914 88.716 110.434 89.491 110.685 89.743ZM125.776 92.83C124.676 93.44 124.313 93.953 124.97 93.97C125.627 93.986 127.224 92.987 128.519 91.75C129.814 90.513 130.177 90 129.325 90.61C128.473 91.221 126.876 92.219 125.776 92.83Z" fill="#F5F5F5"/>
<path fill-rule="evenodd" clip-rule="evenodd" d="M10.6034 3.559C15.7354 14.322 27.2114 25.661 38.0904 30.719C44.4264 33.665 46.7654 34.193 55.5904 34.669C69.4684 35.417 76.0524 33.695 96.2764 24.03C117.381 13.944 121.955 12.604 135.276 12.6C143.83 12.598 146.61 12.985 150.276 14.688C160.479 19.428 165.129 27.918 166.318 43.983C167.592 61.203 171.641 72.2 179.997 81.133C183.569 84.951 184.143 85.998 182.663 85.99C179.12 85.972 170.356 81.133 166.042 76.813C160.94 71.704 158.974 67.821 155.602 56.19C153.232 48.016 150.423 41.291 150.301 43.5C150.27 44.05 149.773 43.825 149.195 43C148.373 41.826 148.282 41.989 148.778 43.75C149.621 46.748 147.887 46.636 146.505 43.603C144.786 39.831 138.867 35.927 133.584 35.082C128.719 34.303 129.155 33.429 134.776 32.693C136.426 32.477 135.076 32.235 131.776 32.155C123.975 31.968 120.076 33.116 106.776 39.518C94.1404 45.6 88.1804 47.462 76.2764 49.043C65.9784 50.411 57.4445 49.618 48.0464 46.422C35.0925 42.016 25.1875 34.452 17.5894 23.164C15.4924 20.049 13.4184 17.343 12.9804 17.151C12.5424 16.959 9.95445 15.302 7.22945 13.468L2.27444 10.134L2.91745 14.317C3.84245 20.338 7.50945 27.074 12.1395 31.257C17.0345 35.68 20.0844 37.307 27.5394 39.474C30.6944 40.391 33.2764 41.271 33.2764 41.428C33.2764 42.086 14.4974 40.859 11.3324 39.995C9.43845 39.477 7.66644 39.277 7.39444 39.549C6.63445 40.308 11.1124 49 12.2634 49C12.8204 49 13.2764 49.704 13.2764 50.565C13.2764 51.426 15.5564 54.351 18.3434 57.065C22.8094 61.416 23.9154 62 27.6764 62C30.5144 62 31.9435 61.564 31.9435 60.698C31.9435 59.87 31.0024 59.528 29.3594 59.76C26.2354 60.202 16.2774 52.457 12.9524 47C10.9964 43.789 11.3304 43.959 17.0084 49.06C26.4414 57.535 26.7004 57.62 37.0094 55.61C49.3074 53.213 53.6344 51.844 52.0624 50.846C51.0884 50.229 51.1634 50.027 52.3734 50.015C53.9364 50 58.4664 53.298 58.0084 54.118C57.8804 54.347 58.3934 53.738 59.1484 52.767C60.0084 51.659 61.8634 51 64.1204 51C67.6754 51 67.6954 51.024 65.7484 52.874C63.4784 55.03 52.1164 59.464 42.4284 61.973C38.7694 62.92 34.2784 64.613 32.4464 65.735L29.1174 67.775L31.4194 69.388C34.0824 71.253 36.7294 71.543 35.6864 69.854C35.1944 69.059 35.7244 68.896 37.4194 69.321C52.0724 72.999 64.1794 69.56 84.2764 56.011C95.3654 48.535 95.1884 48.622 94.5864 50.924C93.9504 53.357 96.3394 53.158 99.2344 50.538C100.364 49.515 101.505 48.895 101.769 49.16C102.604 49.995 91.0424 60.869 84.4174 65.479C80.9204 67.913 74.6204 71.318 70.4174 73.047C56.0264 78.967 54.2044 81.631 65.1784 80.711C75.9194 79.811 89.1004 71.878 98.8844 60.426C104.423 53.942 106.569 53.26 102.411 59.304C98.2564 65.343 86.9024 75.722 81.6714 78.263C79.2544 79.438 77.2764 80.796 77.2764 81.281C77.2764 82.24 82.4334 79.334 88.7764 74.8C95.1004 70.28 105.296 59.85 104.594 58.619C104.243 58.004 104.316 57.826 104.757 58.224C105.197 58.622 106.875 57.497 108.485 55.724L111.412 52.5L109.447 56.5C106.52 62.457 96.0994 73.299 88.3454 78.454C84.5844 80.954 81.0054 83 80.3924 83C78.7134 83 79.0504 87.699 80.7764 88.362C81.6014 88.678 82.2764 88.537 82.2764 88.048C82.2764 87.559 83.7394 86.862 85.5264 86.498C90.8444 85.418 98.3864 79.565 104.776 71.558C110.975 63.791 113.573 62.93 108.731 70.248C104.119 77.217 97.0054 84.199 92.4434 86.234C90.0604 87.297 88.3354 88.392 88.6104 88.667C88.8854 88.942 91.0984 88.288 93.5284 87.213C96.7994 85.766 100.392 82.408 107.361 74.286C112.539 68.251 116.931 63.708 117.121 64.191C117.599 65.407 107.645 78.403 101.417 84.694C96.0174 90.149 94.9284 93 98.2454 93C99.5844 93 100.029 92.52 99.6384 91.5C99.2274 90.43 99.7384 89.995 101.419 89.984C105.929 89.952 111.637 85.681 116.118 78.987C118.506 75.419 121.131 72.347 121.95 72.161C123.203 71.876 123.171 72.272 121.752 74.661L120.065 77.5L122.254 74.75C124.839 71.503 125.847 71.279 125.847 73.952C125.847 75.026 125.647 75.704 125.401 75.459C125.156 75.213 123.409 77.597 121.52 80.756C119.631 83.915 117.228 87.429 116.181 88.564C115.133 89.7 114.276 91.837 114.276 93.314C114.276 96.138 115.696 96.955 116.583 94.642C116.87 93.895 118.566 92.992 120.352 92.635C124.237 91.858 129.962 86.134 133.943 79.046C135.501 76.272 137.108 74.002 137.513 74.001C138.325 74 133.932 84.409 132.059 86.924C130.994 88.354 131.045 88.356 132.607 86.938C133.554 86.079 136.105 82.029 138.276 77.938C140.447 73.847 142.235 71.026 142.25 71.668C142.264 72.311 142.577 73.622 142.946 74.582C143.368 75.683 143.227 76.088 142.563 75.678C141.957 75.303 140.631 77.071 139.436 79.849C138.295 82.502 135.824 86.956 133.945 89.749C129.797 95.913 128.686 101 131.489 101C134.51 101 140.815 97.336 143.706 93.901C147.369 89.547 151.5 81.172 150.657 79.808C150.217 79.096 150.424 78.973 151.228 79.471C152.187 80.063 152.329 79.516 151.819 77.195C151.276 74.725 151.544 73.927 153.212 73.034C154.964 72.096 155.276 72.22 155.276 73.85C155.276 77.812 151.68 86.711 147.641 92.745C144.914 96.819 143.643 99.687 143.985 100.995C144.559 103.189 147.276 103.785 147.276 101.716C147.276 101.009 148.641 99.625 150.31 98.639C151.978 97.653 155.867 93.495 158.95 89.398C162.034 85.3 164.725 82.116 164.93 82.32C165.593 82.984 162.148 90.409 159.627 93.75C158.278 95.538 157.594 97 158.106 97C158.619 97 160.24 95.425 161.708 93.5C163.176 91.575 164.182 90 163.942 90C163.702 90 164.692 88.696 166.141 87.103C167.59 85.509 168.915 84.336 169.085 84.495C169.848 85.21 165.909 92.741 162.765 96.579C158.807 101.409 152.607 104.75 146.776 105.195C143.093 105.476 142.752 105.288 142.467 102.826C142.162 100.187 142.113 100.17 138.749 101.576C136.874 102.359 133.505 103 131.263 103H127.185L127.834 99.54L128.484 96.08L125.136 97.04C120.976 98.233 115.229 98.256 113.383 97.087C112.598 96.59 112.218 95.331 112.513 94.204C113.013 92.291 112.883 92.266 109.574 93.649C107.53 94.503 103.793 94.973 100.445 94.797C95.4204 94.534 94.7834 94.261 94.8404 92.397C94.9004 90.415 94.5144 90.322 88.1704 90.775C79.5884 91.389 75.8414 90.545 76.7814 88.208C77.1594 87.269 77.6904 85.957 77.9624 85.294C78.3344 84.386 77.6324 84.324 75.1234 85.044C67.6324 87.192 56.4334 85.031 54.2884 81.022C53.6524 79.833 51.5564 79.073 47.6464 78.614C38.5754 77.548 25.2764 70.703 25.2764 67.1C25.2764 66.205 23.4384 64.353 21.1904 62.986C14.1964 58.73 5.11545 45.284 2.71245 35.626L1.99744 32.752L6.64944 35.478C14.0854 39.836 15.1055 38.027 8.83545 31.604C2.26445 24.874 -0.165558 18.593 0.161438 9.183L0.276443 5.866L5.02644 9.639C7.63945 11.714 10.2964 13.789 10.9334 14.251C11.5694 14.712 11.0174 12.482 9.70644 9.295C7.24744 3.315 6.67145 0 8.09145 0C8.53944 0 9.66943 1.601 10.6034 3.559ZM138.276 15.699C139.651 15.934 142.238 16.512 144.026 16.983C145.814 17.454 147.276 17.456 147.276 16.989C147.276 15.966 144.042 15.272 139.276 15.272C136.837 15.272 136.534 15.402 138.276 15.699ZM119.864 16.978C115.611 18.065 105.076 22.295 96.4544 26.378C87.8314 30.46 78.7514 34.318 76.2764 34.95C73.8014 35.582 71.1014 36.362 70.2764 36.683C69.4514 37.004 64.9004 37.172 60.1634 37.055C52.3084 36.861 51.5054 37.018 51.0294 38.835C50.3764 41.334 51.8964 41.779 63.7764 42.566C70.3094 42.999 74.9694 42.704 80.7764 41.488C94.4864 38.619 94.2314 38.632 90.2764 41.003L86.7764 43.1L90.8704 42.563C93.1224 42.268 99.7874 39.722 105.683 36.906C118.258 30.899 124.629 29.028 132.566 29.012C145.278 28.986 153.43 37.638 157.759 55.75C159.524 63.138 161.034 65.856 159.842 59.5C158.878 54.362 160.814 55.196 162.7 60.731C164.633 66.404 170.138 75.733 171.967 76.435C173.9 77.177 173.557 75.281 171.359 73.083C170.305 72.029 169.743 70.832 170.109 70.423C170.476 70.014 170.233 69.991 169.569 70.372C168.083 71.225 164.607 65.041 166.053 64.117C166.665 63.726 166.536 60.566 165.701 55.5C164.975 51.1 164.358 45.827 164.329 43.781C164.292 41.151 163.895 40.209 162.973 40.563C162.131 40.886 160.843 39.067 159.333 35.425C156.565 28.745 151.611 23.478 145.596 20.817C140.756 18.677 129.725 18.268 122.776 19.972C113.395 22.272 114.489 20.21 124.276 17.147C132.651 14.525 129.869 14.419 119.864 16.978ZM7.74445 19.571C9.68144 23.168 15.4064 28.416 22.7584 33.336C26.9004 36.107 26.4285 36.758 21.5914 34.944C14.5934 32.319 7.96643 25.709 5.35744 18.75C3.87843 14.808 5.47444 15.356 7.74445 19.571ZM21.3254 24.563C31.3564 37.565 45.6794 45.167 62.4924 46.411L69.7764 46.95L61.6534 45.509C52.9784 43.969 42.7304 40.543 41.6704 38.828C41.2724 38.185 41.7444 38 42.9014 38.345C47.4894 39.715 50.2764 40.165 50.2764 39.537C50.2764 38.032 47.4675 36.224 42.6324 34.618C39.8284 33.687 34.9524 31.37 31.7974 29.47C28.6414 27.57 25.5464 26.309 24.9184 26.668C24.2904 27.027 24.1234 26.939 24.5464 26.473C25.3354 25.606 18.2754 17.667 17.4504 18.493C17.1994 18.744 18.9434 21.476 21.3254 24.563ZM157.093 25.217C157.81 25.934 158.276 25.993 158.276 25.367C158.276 24.798 157.976 24.033 157.609 23.667C157.243 23.3 156.71 23.233 156.426 23.517C156.142 23.801 156.442 24.566 157.093 25.217ZM122.276 36.369C122.276 36.713 120.649 38.796 118.66 40.997C116.671 43.199 115.433 44.994 115.91 44.986C118.447 44.946 121.171 43.64 120.61 42.732C120.255 42.157 120.446 41.987 121.038 42.353C121.626 42.717 123.271 42.572 124.692 42.032C126.113 41.492 127.269 41.376 127.261 41.775C127.239 42.788 125.31 45.677 125.291 44.724C125.283 44.298 123.975 44.622 122.384 45.444C119.702 46.831 116.553 52.61 117.799 53.857C118.388 54.445 127.395 50.023 131.185 47.285C136.001 43.807 132.784 48.38 127.701 52.239C123.576 55.37 122.832 56.426 123.123 58.739C123.314 60.257 123.631 61.666 123.826 61.87C124.533 62.604 134.401 54.703 136.947 51.364C138.382 49.484 139.754 48.144 139.996 48.387C140.785 49.176 138.099 53.274 133.736 57.939L129.467 62.503L131.175 65.806L132.883 69.108L137.83 63.756C140.55 60.812 143.578 56.902 144.557 55.066C145.537 53.231 146.638 52.029 147.005 52.396C147.372 52.763 146.354 55.498 144.744 58.475L141.817 63.887L144.046 66.903C145.273 68.562 146.276 70.387 146.276 70.96C146.276 71.532 146.749 72 147.327 72C148.793 72 151.276 65.694 151.276 61.973C151.276 60.167 151.692 59.139 152.276 59.5C154.856 61.095 152.463 71.54 148.642 75.361C145.566 78.437 144.276 78.003 144.276 73.891C144.276 72.246 143.573 69.541 142.714 67.88L141.152 64.86L136.664 68.996C131.81 73.47 129.934 73.712 129.496 69.922C128.693 62.976 128.577 62.847 124.634 64.495C122.653 65.323 120.883 66 120.701 66C120.519 66 120.638 63.737 120.966 60.97L121.562 55.941L118.854 56.97C115.457 58.262 112.276 58.298 112.276 57.044C112.276 56.519 113.401 54.431 114.776 52.405C118.042 47.592 117.932 46.951 114.033 48.07C106.273 50.295 104.991 48.046 111.563 43.737C113.88 42.218 117.239 39.797 119.026 38.359C120.813 36.921 122.276 36.025 122.276 36.369ZM9.77644 41C10.1164 41.55 9.91745 42 9.33545 42C8.75345 42 8.27644 41.55 8.27644 41C8.27644 40.45 8.47444 40 8.71744 40C8.96043 40 9.43645 40.45 9.77644 41ZM83.0584 59.989C80.4634 61.806 78.6204 63.747 78.9624 64.301C79.3194 64.879 79.0844 65 78.4124 64.584C77.7674 64.186 75.6344 64.852 73.6724 66.064C71.7104 67.277 67.1054 69.242 63.4404 70.432C59.7754 71.621 56.6644 73.136 56.5264 73.797C56.2104 75.316 55.9704 75.344 62.3694 73.128C70.6154 70.272 81.2364 64.745 80.5654 63.659C80.2364 63.126 80.4834 63.01 81.1134 63.399C82.4064 64.198 89.7364 59.464 92.7764 55.866L94.7764 53.5L92.6974 55.25C89.4924 57.949 88.6454 57.321 91.3484 54.25L93.7694 51.5L90.7724 54.092C89.1244 55.517 85.6534 58.171 83.0584 59.989ZM46.2764 57.031C49.1184 57.762 49.7374 57.555 48.8754 56.16C48.5454 55.625 47.2624 55.458 46.0254 55.787C43.7874 56.384 43.7884 56.39 46.2764 57.031ZM161.154 66.675C162.333 68.702 162.617 68.053 161.652 65.539C161.31 64.645 160.818 64.124 160.561 64.382C160.303 64.639 160.57 65.671 161.154 66.675ZM168.154 67.675C169.333 69.702 169.617 69.053 168.652 66.539C168.31 65.645 167.818 65.124 167.561 65.382C167.303 65.639 167.57 66.671 168.154 67.675ZM164.276 72.378C164.276 72.585 165.064 73.373 166.026 74.128C167.612 75.371 167.647 75.336 166.404 73.75C165.097 72.084 164.276 71.555 164.276 72.378ZM152.593 76.188C152.912 76.985 153.149 76.748 153.197 75.583C153.24 74.529 153.004 73.939 152.672 74.271C152.34 74.603 152.304 75.466 152.593 76.188ZM148.816 81.75C148.16 84.414 144.652 90.809 142.026 94.123C140.388 96.192 134.19 99.991 132.445 99.996C131.714 99.998 133.611 97.719 136.662 94.93C139.713 92.142 143.607 87.417 145.316 84.43C148.754 78.421 149.84 77.589 148.816 81.75ZM110.685 89.743C111.379 90.436 113.276 89.027 113.276 87.819C113.276 87.155 112.702 87.231 111.752 88.02C110.914 88.716 110.434 89.491 110.685 89.743ZM125.776 92.83C124.676 93.44 124.313 93.953 124.97 93.97C125.627 93.986 127.224 92.987 128.519 91.75C129.814 90.513 130.177 90 129.325 90.61C128.473 91.221 126.876 92.219 125.776 92.83Z" fill="#F5F5F5"/>
<path fill-rule="evenodd" clip-rule="evenodd" d="M10.6034 3.559C15.7354 14.322 27.2114 25.661 38.0904 30.719C44.4264 33.665 46.7654 34.193 55.5904 34.669C69.4684 35.417 76.0524 33.695 96.2764 24.03C117.381 13.944 121.955 12.604 135.276 12.6C143.83 12.598 146.61 12.985 150.276 14.688C160.479 19.428 165.129 27.918 166.318 43.983C167.592 61.203 171.641 72.2 179.997 81.133C183.569 84.951 184.143 85.998 182.663 85.99C179.12 85.972 170.356 81.133 166.042 76.813C160.962 71.726 158.972 67.814 155.667 56.413C152.617 45.894 151.268 42.887 149.96 43.695C149.333 44.083 149.191 43.663 149.595 42.612C150 41.556 149.857 41.141 149.224 41.532C148.658 41.882 148.468 43.03 148.803 44.084C149.678 46.842 147.801 46.449 146.505 43.603C144.786 39.831 138.867 35.927 133.584 35.082C128.719 34.303 129.155 33.429 134.776 32.693C136.426 32.477 135.076 32.235 131.776 32.155C123.975 31.968 120.076 33.116 106.776 39.518C94.1404 45.6 88.1804 47.462 76.2764 49.043C65.9784 50.411 57.4445 49.618 48.0464 46.422C35.0925 42.016 25.1875 34.452 17.5894 23.164C15.4924 20.049 13.4184 17.343 12.9804 17.151C12.5424 16.959 9.95445 15.302 7.22945 13.468L2.27444 10.134L2.91745 14.317C3.84245 20.338 7.50945 27.074 12.1395 31.257C17.0345 35.68 20.0844 37.307 27.5394 39.474C30.6944 40.391 33.2764 41.271 33.2764 41.428C33.2764 42.086 14.4974 40.859 11.3324 39.995C9.43845 39.477 7.64944 39.294 7.35645 39.586C6.19345 40.75 13.0504 51.731 18.0835 56.763C23.1875 61.868 23.6304 62.09 28.1004 61.802C30.6904 61.635 32.5534 61.07 32.2764 60.537C32.0014 60.007 30.6514 59.69 29.2764 59.833C26.2194 60.149 16.1334 52.22 12.9524 47C10.9964 43.789 11.3304 43.959 17.0084 49.06C26.4414 57.535 26.7004 57.62 37.0094 55.61C49.3074 53.213 53.6344 51.844 52.0624 50.846C51.0884 50.229 51.1634 50.027 52.3734 50.015C53.9364 50 58.4664 53.298 58.0084 54.118C57.8804 54.347 58.3934 53.738 59.1484 52.767C60.0084 51.659 61.8634 51 64.1204 51C67.6754 51 67.6954 51.024 65.7484 52.874C63.4954 55.014 50.4294 60.091 42.2764 61.995C36.5604 63.329 29.2974 66.878 29.2844 68.344C29.2794 68.808 30.1764 69.423 31.2764 69.71C32.3764 69.998 33.2764 70.617 33.2764 71.085C33.2764 71.554 33.9484 71.679 34.7704 71.364C35.5925 71.048 35.9754 70.322 35.6214 69.749C35.2085 69.081 35.8515 68.928 37.4194 69.321C52.0724 72.999 64.1794 69.56 84.2764 56.011C95.3654 48.535 95.1884 48.622 94.5864 50.924C93.9504 53.357 96.3394 53.158 99.2344 50.538C100.364 49.515 101.505 48.895 101.769 49.16C102.604 49.995 91.0424 60.869 84.4174 65.479C80.9204 67.913 74.6204 71.318 70.4174 73.047C56.0264 78.967 54.2044 81.631 65.1784 80.711C75.9194 79.811 89.1004 71.878 98.8844 60.426C104.423 53.942 106.569 53.26 102.411 59.304C98.1334 65.522 87.0114 75.594 81.1364 78.571C78.3544 79.981 76.3204 81.378 76.6184 81.675C77.5334 82.59 88.9504 75.147 95.0164 69.68C101.85 63.52 104.898 59.912 104.443 58.519C104.259 57.959 104.435 57.826 104.834 58.224C105.232 58.622 106.875 57.497 108.485 55.724L111.412 52.5L109.447 56.5C106.52 62.457 96.0994 73.299 88.3454 78.454C84.5844 80.954 81.0054 83 80.3924 83C78.6674 83 79.0744 87.709 80.8584 88.393C83.0344 89.228 83.4904 89.156 82.8264 88.081C82.5145 87.576 83.7254 86.865 85.5174 86.5C90.8444 85.418 98.3824 79.569 104.776 71.558C110.975 63.791 113.573 62.93 108.731 70.248C104.119 77.217 97.0054 84.199 92.4434 86.234C90.0604 87.297 88.3354 88.392 88.6104 88.667C88.8854 88.942 91.0984 88.288 93.5284 87.213C96.7994 85.766 100.392 82.408 107.361 74.286C112.539 68.251 116.931 63.708 117.121 64.191C117.599 65.407 107.645 78.403 101.417 84.694C95.5734 90.598 94.8634 93.041 99.0264 92.921C100.539 92.878 101.213 92.615 100.526 92.338C98.4714 91.508 99.1114 90.001 101.526 89.984C105.934 89.951 111.675 85.625 116.118 78.987C118.506 75.419 121.15 72.344 121.993 72.153C123.331 71.849 123.32 72.099 121.901 74.125C121.007 75.401 120.278 76.907 120.28 77.473C120.282 78.038 121.175 77.037 122.265 75.25C124.511 71.567 125.847 71.083 125.847 73.952C125.847 75.026 125.647 75.704 125.401 75.459C125.156 75.213 123.409 77.597 121.52 80.756C119.631 83.915 117.228 87.429 116.181 88.564C115.133 89.7 114.276 91.837 114.276 93.314C114.276 96.138 115.696 96.955 116.583 94.642C116.87 93.895 118.566 92.992 120.352 92.635C124.237 91.858 129.962 86.134 133.943 79.046C135.501 76.272 137.108 74.002 137.513 74.001C138.325 74 133.932 84.409 132.059 86.924C130.994 88.354 131.045 88.356 132.607 86.938C133.554 86.079 136.105 82.029 138.276 77.938C140.447 73.847 142.235 71.026 142.25 71.668C142.264 72.311 142.577 73.622 142.946 74.582C143.368 75.683 143.227 76.088 142.563 75.678C141.957 75.303 140.631 77.071 139.436 79.849C138.295 82.502 135.824 86.956 133.945 89.749C129.797 95.913 128.686 101 131.489 101C134.51 101 140.815 97.336 143.706 93.901C147.369 89.547 151.5 81.172 150.657 79.808C150.217 79.096 150.424 78.973 151.228 79.471C152.187 80.063 152.329 79.516 151.819 77.195C151.276 74.725 151.544 73.927 153.212 73.034C154.964 72.096 155.276 72.22 155.276 73.85C155.276 77.812 151.68 86.711 147.641 92.745C143.286 99.25 142.818 103 146.361 103C147.45 103 148.012 102.475 147.725 101.727C147.456 101.027 148.611 99.643 150.29 98.651C151.969 97.659 155.867 93.495 158.95 89.398C162.034 85.3 164.725 82.116 164.93 82.32C165.593 82.984 162.148 90.409 159.627 93.75C158.278 95.538 157.594 97 158.106 97C158.619 97 160.24 95.425 161.708 93.5C163.176 91.575 164.182 90 163.942 90C163.702 90 164.692 88.696 166.141 87.103C167.59 85.509 168.915 84.336 169.085 84.495C169.848 85.21 165.909 92.741 162.765 96.579C158.807 101.409 152.607 104.75 146.776 105.195C143.093 105.476 142.752 105.288 142.467 102.826C142.162 100.187 142.113 100.17 138.749 101.576C136.874 102.359 133.505 103 131.263 103H127.185L127.834 99.54L128.484 96.08L125.136 97.04C120.976 98.233 115.229 98.256 113.383 97.087C112.598 96.59 112.218 95.331 112.513 94.204C113.013 92.291 112.883 92.266 109.574 93.649C107.53 94.503 103.793 94.973 100.445 94.797C95.4204 94.534 94.7834 94.261 94.8404 92.397C94.9004 90.415 94.5144 90.322 88.1704 90.775C79.5884 91.389 75.8414 90.545 76.7814 88.208C77.1594 87.269 77.6904 85.957 77.9624 85.294C78.3344 84.386 77.6324 84.324 75.1234 85.044C67.6324 87.192 56.4334 85.031 54.2884 81.022C53.6524 79.833 51.5564 79.073 47.6464 78.614C38.7194 77.565 24.5504 70.334 25.6754 67.401C25.9534 66.677 24.0905 64.806 21.3244 63.031C13.7914 58.197 5.16945 45.501 2.71245 35.626L1.99744 32.752L6.64944 35.478C14.0854 39.836 15.1055 38.027 8.83545 31.604C2.26445 24.874 -0.165558 18.593 0.161438 9.183L0.276443 5.866L5.02644 9.639C7.63945 11.714 10.2964 13.789 10.9334 14.251C11.5694 14.712 11.0174 12.482 9.70644 9.295C7.24744 3.315 6.67145 0 8.09145 0C8.53944 0 9.66943 1.601 10.6034 3.559ZM139.017 16.014C141.9 16.435 144.938 17.04 145.767 17.358C146.597 17.677 147.276 17.533 147.276 17.038C147.276 15.908 144.074 15.276 138.276 15.261L133.776 15.25L139.017 16.014ZM119.864 16.978C115.611 18.065 105.076 22.295 96.4544 26.378C87.8314 30.46 78.7514 34.318 76.2764 34.95C73.8014 35.582 71.1014 36.362 70.2764 36.683C69.4514 37.004 64.9004 37.172 60.1634 37.055C52.3084 36.861 51.5054 37.018 51.0294 38.835C50.3764 41.334 51.8964 41.779 63.7764 42.566C70.3094 42.999 74.9694 42.704 80.7764 41.488C94.4864 38.619 94.2314 38.632 90.2764 41.003L86.7764 43.1L90.8704 42.563C93.1224 42.268 99.7874 39.722 105.683 36.906C118.258 30.899 124.629 29.028 132.566 29.012C145.278 28.986 153.43 37.638 157.759 55.75C159.524 63.138 161.034 65.856 159.842 59.5C158.878 54.362 160.814 55.196 162.7 60.731C164.633 66.404 170.138 75.733 171.967 76.435C173.9 77.177 173.557 75.281 171.359 73.083C170.305 72.029 169.743 70.832 170.109 70.423C170.476 70.014 170.233 69.991 169.569 70.372C168.083 71.225 164.607 65.041 166.053 64.117C166.665 63.726 166.536 60.566 165.701 55.5C164.975 51.1 164.358 45.827 164.329 43.781C164.292 41.151 163.895 40.209 162.973 40.563C162.131 40.886 160.843 39.067 159.333 35.425C156.565 28.745 151.611 23.478 145.596 20.817C140.756 18.677 129.725 18.268 122.776 19.972C113.395 22.272 114.489 20.21 124.276 17.147C132.651 14.525 129.869 14.419 119.864 16.978ZM7.74445 19.571C9.68144 23.168 15.4064 28.416 22.7584 33.336C26.9004 36.107 26.4285 36.758 21.5914 34.944C14.5934 32.319 7.96643 25.709 5.35744 18.75C3.87843 14.808 5.47444 15.356 7.74445 19.571ZM17.9694 20.154C21.7024 26.671 32.5104 36.38 40.2764 40.192C49.1874 44.566 53.4214 45.742 62.7764 46.439L69.7764 46.96L61.6534 45.514C52.9724 43.968 42.7284 40.54 41.6704 38.828C41.2724 38.185 41.7444 38 42.9014 38.345C47.4894 39.715 50.2764 40.165 50.2764 39.537C50.2764 38.032 47.4675 36.224 42.6324 34.618C39.8284 33.687 34.9524 31.37 31.7974 29.47C28.6414 27.57 25.5464 26.309 24.9184 26.668C24.2904 27.027 24.1244 26.938 24.5494 26.471C25.1754 25.782 17.7234 17 16.5114 17C16.3204 17 16.9764 18.419 17.9694 20.154ZM157.175 25.712C158.135 27.363 158.218 27.34 158.246 25.417C158.279 23.102 157.01 21.297 156.476 22.9C156.288 23.463 156.603 24.729 157.175 25.712ZM161.593 33.188C161.912 33.985 162.149 33.748 162.197 32.583C162.24 31.529 162.004 30.939 161.672 31.271C161.34 31.603 161.304 32.466 161.593 33.188ZM142.841 35.924C144.997 37.532 146.99 38.616 147.269 38.334C147.999 37.595 142.046 33.011 140.348 33.005C139.562 33.002 140.684 34.316 142.841 35.924ZM122.276 36.369C122.276 36.713 120.649 38.796 118.66 40.997C116.671 43.199 115.433 44.994 115.91 44.986C118.447 44.946 121.171 43.64 120.61 42.732C120.255 42.157 120.446 41.987 121.038 42.353C121.626 42.717 123.271 42.572 124.692 42.032C126.113 41.492 127.269 41.376 127.261 41.775C127.239 42.788 125.31 45.677 125.291 44.724C125.283 44.298 123.975 44.622 122.384 45.444C119.702 46.831 116.553 52.61 117.799 53.857C118.388 54.445 127.395 50.023 131.185 47.285C136.001 43.807 132.784 48.38 127.701 52.239C123.576 55.37 122.832 56.426 123.123 58.739C123.314 60.257 123.631 61.666 123.826 61.87C124.533 62.604 134.401 54.703 136.947 51.364C138.382 49.484 139.754 48.144 139.996 48.387C140.785 49.176 138.099 53.274 133.736 57.939L129.467 62.503L131.175 65.806L132.883 69.108L137.83 63.756C140.55 60.812 143.578 56.902 144.557 55.066C145.537 53.231 146.638 52.029 147.005 52.396C147.372 52.763 146.354 55.498 144.744 58.475L141.817 63.887L144.046 66.903C145.273 68.562 146.276 70.387 146.276 70.96C146.276 71.532 146.749 72 147.327 72C148.793 72 151.276 65.694 151.276 61.973C151.276 60.167 151.692 59.139 152.276 59.5C154.856 61.095 152.463 71.54 148.642 75.361C145.566 78.437 144.276 78.003 144.276 73.891C144.276 72.246 143.573 69.541 142.714 67.88L141.152 64.86L136.664 68.996C131.81 73.47 129.934 73.712 129.496 69.922C128.693 62.976 128.577 62.847 124.634 64.495C122.653 65.323 120.883 66 120.701 66C120.519 66 120.638 63.737 120.966 60.97L121.562 55.941L118.854 56.97C115.457 58.262 112.276 58.298 112.276 57.044C112.276 56.519 113.401 54.431 114.776 52.405C118.042 47.592 117.932 46.951 114.033 48.07C106.273 50.295 104.991 48.046 111.563 43.737C113.88 42.218 117.239 39.797 119.026 38.359C120.813 36.921 122.276 36.025 122.276 36.369ZM9.77644 41C10.1164 41.55 9.91745 42 9.33545 42C8.75345 42 8.27644 41.55 8.27644 41C8.27644 40.45 8.47444 40 8.71744 40C8.96043 40 9.43645 40.45 9.77644 41ZM76.0074 45.656C76.6844 45.93 78.0344 45.947 79.0074 45.693C79.9804 45.439 79.4264 45.215 77.7764 45.195C76.1264 45.175 75.3304 45.382 76.0074 45.656ZM83.0584 59.989C80.4634 61.806 78.6204 63.747 78.9624 64.301C79.3194 64.879 79.0844 65 78.4124 64.584C77.7674 64.186 75.6344 64.852 73.6724 66.064C71.7104 67.277 67.1054 69.242 63.4404 70.432C59.7754 71.621 56.6644 73.136 56.5264 73.797C56.2104 75.316 55.9704 75.344 62.3694 73.128C70.6154 70.272 81.2364 64.745 80.5654 63.659C80.2364 63.126 80.4834 63.01 81.1134 63.399C82.4064 64.198 89.7364 59.464 92.7764 55.866L94.7764 53.5L92.6974 55.25C89.4924 57.949 88.6454 57.321 91.3484 54.25L93.7694 51.5L90.7724 54.092C89.1244 55.517 85.6534 58.171 83.0584 59.989ZM45.8044 55.911C44.0344 56.603 44.1104 56.735 46.5544 57.202C48.4384 57.563 49.2764 57.304 49.2764 56.361C49.2764 54.852 48.7054 54.778 45.8044 55.911ZM161.154 66.675C162.333 68.702 162.617 68.053 161.652 65.539C161.31 64.645 160.818 64.124 160.561 64.382C160.303 64.639 160.57 65.671 161.154 66.675ZM168.154 67.675C169.333 69.702 169.617 69.053 168.652 66.539C168.31 65.645 167.818 65.124 167.561 65.382C167.303 65.639 167.57 66.671 168.154 67.675ZM164.276 72.378C164.276 72.585 165.064 73.373 166.026 74.128C167.612 75.371 167.647 75.336 166.404 73.75C165.097 72.084 164.276 71.555 164.276 72.378ZM35.2764 72.775C35.2754 74.212 49.5174 77.087 51.2704 76.004C52.7325 75.1 50.6094 73.351 47.2764 72.714C44.7284 72.228 35.2775 72.276 35.2764 72.775ZM152.593 76.188C152.912 76.985 153.149 76.748 153.197 75.583C153.24 74.529 153.004 73.939 152.672 74.271C152.34 74.603 152.304 75.466 152.593 76.188ZM169.276 77.5C169.961 78.325 171.002 79 171.59 79C172.177 79 171.785 78.339 170.717 77.532C168.209 75.634 167.719 75.624 169.276 77.5ZM174.276 80.339C174.276 81.076 175.422 82.201 176.823 82.839C180.587 84.554 180.886 84.278 178.276 81.5C175.665 78.721 174.276 78.318 174.276 80.339ZM148.816 81.75C148.16 84.414 144.652 90.809 142.026 94.123C140.388 96.192 134.19 99.991 132.445 99.996C131.714 99.998 133.611 97.719 136.662 94.93C139.713 92.142 143.607 87.417 145.316 84.43C148.754 78.421 149.84 77.589 148.816 81.75ZM62.2764 83C63.1014 83.533 65.3514 83.945 67.2764 83.914C70.1364 83.869 70.4104 83.702 68.7764 83C67.6764 82.527 65.4264 82.116 63.7764 82.086C61.4854 82.044 61.1304 82.26 62.2764 83ZM110.685 89.743C111.379 90.436 113.276 89.027 113.276 87.819C113.276 87.155 112.702 87.231 111.752 88.02C110.914 88.716 110.434 89.491 110.685 89.743ZM125.776 92.83C124.676 93.44 124.313 93.953 124.97 93.97C125.627 93.986 127.224 92.987 128.519 91.75C129.814 90.513 130.177 90 129.325 90.61C128.473 91.221 126.876 92.219 125.776 92.83Z" fill="#F5F5F5"/>
<path fill-rule="evenodd" clip-rule="evenodd" d="M9.00912 1.22614C10.3901 2.95614 13.7301 9.68814 12.7451 8.75914C12.3131 8.35114 11.3311 8.54014 10.5621 9.17814C9.79211 9.81614 9.27013 9.92514 9.40213 9.41914C9.53313 8.91414 9.12012 6.72514 8.48512 4.55614C7.23613 0.289136 7.40413 -0.782864 9.00912 1.22614ZM2.77612 8.00214C5.44713 10.9811 12.8821 16.0611 13.5681 15.3751C13.8681 15.0741 14.6701 15.8801 15.3511 17.1641C19.6941 25.3671 39.6861 43.1011 42.5771 41.3141C43.1311 40.9711 43.2861 41.1751 42.9201 41.7671C42.2091 42.9171 52.0111 46.2821 53.4611 45.3861C53.9091 45.1091 54.2761 45.3061 54.2761 45.8241C54.2761 46.9571 57.0571 47.2411 68.2761 47.2541C80.8891 47.2681 91.0411 44.7851 104.08 38.4971C110.296 35.4991 117.691 32.3601 120.511 31.5231C126.684 29.6901 138.115 29.5321 141.979 31.2271C146.182 33.0701 152.482 40.4551 153.73 45.0001C154.108 46.3751 153.042 45.1661 151.362 42.3131C146.764 34.5051 142.3 31.5371 134.854 31.3371C126.894 31.1231 120.182 33.0781 106.745 39.5251C90.6331 47.2541 86.3091 48.2941 69.2761 48.5311C55.5421 48.7221 54.3631 48.5811 46.9611 45.8671C42.6621 44.2911 37.6701 41.8771 35.8661 40.5011C34.0631 39.1251 32.1191 38.0001 31.5461 38.0001C30.0001 38.0001 18.6691 25.5821 16.0491 21.0151C14.6121 18.5111 12.0361 16.1051 9.04712 14.4761C6.44612 13.0581 3.89311 11.1371 3.37212 10.2071C2.85211 9.27814 2.07213 8.87114 1.63913 9.30414C1.20613 9.73714 1.39711 10.9641 2.06412 12.0321C2.73112 13.0991 3.27612 15.1551 3.27612 16.6001C3.27612 19.1611 7.02112 27.1651 8.53212 27.8351C8.94812 28.0201 8.99113 28.6521 8.62813 29.2401C8.26413 29.8281 8.42613 30.0251 8.98813 29.6781C9.54913 29.3311 10.8561 29.9971 11.8921 31.1591C12.9281 32.3201 15.8011 34.5511 18.2761 36.1161C24.1201 39.8121 22.7631 39.7801 15.3681 36.0471C7.45512 32.0521 0.109116 22.4841 1.72412 18.2761C2.01512 17.5171 1.85912 17.1401 1.37712 17.4381C0.240128 18.1411 -0.390869 13.4361 0.26413 9.13514L0.776123 5.77014L2.77612 8.00214ZM12.7121 12.7071C13.2541 14.1321 13.1401 14.2471 12.1521 13.2671C11.4681 12.5881 11.1611 11.7811 11.4691 11.4741C11.7771 11.1661 12.3361 11.7211 12.7121 12.7071ZM143.776 12.7221C151.771 14.6831 160.859 22.3641 163.957 29.7801C164.798 31.7931 165.87 38.8531 166.34 45.4701C166.809 52.0861 167.449 58.6251 167.763 60.0001L168.332 62.5001L167.242 60.0001C166.642 58.6251 165.717 52.3251 165.185 46.0001C163.659 27.8351 158.207 18.8901 146.515 15.3721C135.339 12.0081 120.698 14.4741 103.467 22.6231C90.4881 28.7611 86.5791 30.3881 87.7761 29.1551C89.6211 27.2551 112.983 16.0001 115.083 16.0001C116.224 16.0001 117.432 15.5571 117.767 15.0151C118.101 14.4741 119.365 14.0491 120.576 14.0721C121.786 14.0941 124.801 13.6571 127.276 13.1001C131.925 12.0541 140.27 11.8631 143.776 12.7221ZM17.2761 13.7811C17.2761 14.2111 19.5161 16.9111 22.2541 19.7811C24.9911 22.6521 26.8851 25.0001 26.4621 25.0001C25.6911 25.0001 18.8251 18.0411 16.3481 14.7501C15.4611 13.5721 15.3981 13.0001 16.1541 13.0001C16.7711 13.0001 17.2761 13.3521 17.2761 13.7811ZM136.276 16.9651C145.289 17.7621 150.675 20.3121 155.669 26.1461C160.732 32.0611 160.174 33.0801 154.891 27.5661C149.195 21.6211 143.208 19.0061 134.801 18.7901C130.771 18.6861 127.783 18.1111 127.118 17.3101C126.309 16.3351 126.382 16.0391 127.404 16.1511C128.158 16.2341 132.151 16.6001 136.276 16.9651ZM8.15213 20.3201C9.78712 22.6961 13.7461 26.6091 16.9501 29.0171C24.9801 35.0501 24.9321 35.0001 22.6471 35.0001C18.0011 35.0001 6.66112 24.7191 5.92212 19.8371C5.81113 19.1021 5.36812 17.9381 4.93912 17.2501C4.50912 16.5631 4.38812 16.0001 4.66913 16.0001C4.95013 16.0001 6.51714 17.9441 8.15213 20.3201ZM85.2761 31.0001C84.4511 31.5331 83.3261 31.9691 82.7761 31.9691C82.2261 31.9691 82.4511 31.5331 83.2761 31.0001C84.1011 30.4671 85.2261 30.0311 85.7761 30.0311C86.3261 30.0311 86.1011 30.4671 85.2761 31.0001ZM5.62512 35.2501C7.15613 36.4871 9.84111 38.0671 11.5921 38.7591L14.7761 40.0181L11.7761 39.3841C10.1261 39.0341 8.21312 38.7301 7.52612 38.7081C6.83812 38.6851 6.27612 38.2171 6.27612 37.6671C6.27612 37.1171 5.99712 36.9451 5.65712 37.2861C5.31612 37.6271 6.55412 40.9611 8.40712 44.6961C12.3031 52.5501 20.4741 61.5291 24.6721 62.5711C27.2761 63.2181 45.4001 60.3241 50.8391 58.3931C52.1941 57.9121 52.4751 58.0281 51.7761 58.7781C50.2861 60.3771 35.5741 63.8911 33.0911 63.2411C31.2961 62.7721 31.0591 62.9951 31.6671 64.5891C32.2501 66.1221 32.1451 66.2531 31.1351 65.2501C30.4431 64.5631 28.5941 64.0001 27.0261 64.0001C22.9351 64.0001 19.3481 61.8561 14.2071 56.3371C9.88612 51.6981 4.17413 41.4241 2.74013 35.7141C1.91513 32.4251 2.09412 32.3961 5.62512 35.2501ZM141.337 35.6431C143.771 37.1551 148.276 42.8051 148.276 44.3471C148.276 44.7441 146.826 43.4181 145.053 41.3991C143.281 39.3811 140.018 36.9221 137.803 35.9351C134.372 34.4071 134.146 34.1351 136.276 34.0971C137.651 34.0731 139.928 34.7691 141.337 35.6431ZM74.4631 34.6831C73.7421 34.9721 72.8791 34.9361 72.5471 34.6041C72.2151 34.2721 72.8051 34.0361 73.8591 34.0791C75.0241 34.1271 75.2611 34.3641 74.4631 34.6831ZM69.2761 35.0001C69.2761 35.5501 68.7991 36.0001 68.2171 36.0001C67.6351 36.0001 67.4361 35.5501 67.7761 35.0001C68.1161 34.4501 68.5921 34.0001 68.8351 34.0001C69.0781 34.0001 69.2761 34.4501 69.2761 35.0001ZM117.846 41.5001C115.744 43.4251 113.664 45.0001 113.224 45.0001C112.783 45.0001 112.277 45.7501 112.099 46.6681C111.777 48.3291 107.276 49.4171 107.276 47.8331C107.276 47.3751 107.64 47.0001 108.086 47.0001C108.531 47.0001 111.268 44.9751 114.167 42.5001C120.354 37.2191 123.433 36.3821 117.846 41.5001ZM83.5801 42.4361C78.5431 44.1231 62.2761 45.9271 62.2761 44.7981C62.2761 44.3591 64.1881 43.9971 66.5261 43.9941C70.3641 43.9891 76.4321 43.1941 84.7761 41.6031C86.5411 41.2671 86.0491 41.6101 83.5801 42.4361ZM54.0961 41.9901C55.9221 42.4231 58.2851 42.5491 59.3461 42.2711C60.4081 41.9941 61.2761 42.2391 61.2761 42.8161C61.2761 44.5481 57.5111 45.1961 55.0641 43.8861C53.8051 43.2131 52.6681 42.7251 52.5361 42.8031C52.4051 42.8801 51.2801 42.5351 50.0361 42.0351C47.2991 40.9351 49.5331 40.9111 54.0961 41.9901ZM117.498 46.5891C115.695 47.5181 113.932 47.9901 113.581 47.6391C112.652 46.7091 113.358 46.3131 117.276 45.5681L120.776 44.9011L117.498 46.5891ZM130.639 49.3791C129.615 50.7841 127.201 52.6461 125.276 53.5151C123.351 54.3851 121.011 55.5151 120.077 56.0251C119.142 56.5361 116.995 57.1971 115.306 57.4951L112.234 58.0361L114.493 54.5901C115.736 52.6941 116.934 51.3251 117.157 51.5471C117.379 51.7701 116.983 52.6481 116.276 53.5001C115.569 54.3521 115.207 55.2641 115.471 55.5291C116.234 56.2921 122.276 53.9071 122.276 52.8431C122.276 52.3151 122.67 52.1251 123.151 52.4231C123.632 52.7201 125.933 51.5821 128.264 49.8931C132.317 46.9581 132.421 46.9351 130.639 49.3791ZM21.0211 52.5481C27.1101 57.0731 27.1741 57.0931 33.4591 56.5131C36.9331 56.1921 41.5091 55.4651 43.6271 54.8991C45.7451 54.3321 47.6881 54.0791 47.9461 54.3361C48.2031 54.5941 43.9951 55.7791 38.5951 56.9691C33.1941 58.1601 28.2751 59.2921 27.6621 59.4841C27.0501 59.6761 23.6751 57.1921 20.1621 53.9641C16.6501 50.7351 14.0291 48.0731 14.3381 48.0471C14.6481 48.0211 17.6551 50.0471 21.0211 52.5481ZM137.809 52.5001C135.072 57.0681 132.317 59.7861 127.659 62.5161C122.795 65.3661 121.276 65.6081 121.276 63.5311C121.276 62.7061 121.87 62.2911 122.632 62.5831C124.169 63.1731 132.314 57.4311 136.692 52.6711L139.608 49.5001L137.809 52.5001ZM156.733 51.9311C157.05 52.4431 156.851 53.1441 156.292 53.4901C155.733 53.8351 155.276 53.4161 155.276 52.5591C155.276 50.8021 155.876 50.5441 156.733 51.9311ZM157.705 57.5711C158.072 59.0371 158.18 60.4291 157.945 60.6651C157.709 60.9001 157.215 59.8941 156.847 58.4291C156.48 56.9631 156.372 55.5711 156.607 55.3351C156.843 55.1001 157.337 56.1061 157.705 57.5711ZM88.2761 56.1671C88.2761 56.8081 88.0001 57.0571 87.6621 56.7191C87.3241 56.3821 84.7371 57.7791 81.9121 59.8241C67.9191 69.9571 62.4681 72.0001 49.4281 72.0001C44.7611 72.0001 41.2541 71.6891 41.6341 71.3091C42.0141 70.9281 45.0051 70.6571 48.2801 70.7051C53.7951 70.7861 63.4431 68.7471 65.7761 67.0071C66.3261 66.5961 68.4631 65.7171 70.5261 65.0531C72.5881 64.3881 74.2761 63.4031 74.2761 62.8631C74.2761 62.3241 74.6691 62.1251 75.1501 62.4221C75.6311 62.7191 77.1451 61.9581 78.5151 60.7311C79.8851 59.5041 81.6291 58.3521 82.3911 58.1711C83.1531 57.9901 84.4861 57.2031 85.3551 56.4211C87.2721 54.6951 88.2761 54.6081 88.2761 56.1671ZM145.276 56.4151C145.276 59.7551 135.437 71.1911 132.065 71.7681C130.936 71.9621 130.368 70.9851 130.029 68.2681C129.444 63.5721 130.043 62.5841 130.894 66.8401C131.242 68.5781 131.826 70.0001 132.193 70.0001C133.013 70.0001 140.164 62.5441 143.112 58.6151C144.302 57.0281 145.276 56.0381 145.276 56.4151ZM92.6061 58.3441C91.3551 60.5351 81.0671 67.9891 80.1101 67.3981C79.6521 67.1141 79.2761 67.3801 79.2761 67.9891C79.2761 69.2461 73.1971 72.0691 72.0361 71.3521C71.6181 71.0931 71.2761 71.3261 71.2761 71.8691C71.2761 74.1501 59.8261 77.3061 50.5451 77.5831C42.0581 77.8371 40.8431 77.6241 35.4851 74.9471C29.9161 72.1641 23.7491 67.0001 25.9951 67.0001C26.5821 67.0001 27.3041 67.6321 27.6011 68.4041C27.8971 69.1761 31.1981 71.3131 34.9371 73.1541C40.9151 76.0971 42.6901 76.5001 49.6721 76.5001C55.1541 76.5001 57.7391 76.1111 58.0281 75.2441C58.2581 74.5531 58.7991 74.2051 59.2291 74.4711C60.1421 75.0351 72.2181 70.4581 73.6831 68.9931C74.2291 68.4471 75.4861 68.0001 76.4761 68.0001C77.4661 68.0001 78.2761 67.6051 78.2761 67.1211C78.2761 66.6381 79.7071 65.6501 81.4561 64.9251C83.2051 64.2011 86.6161 62.0971 89.0361 60.2491C91.4561 58.4021 93.0631 57.5451 92.6061 58.3441ZM161.735 58.9331C162.097 59.5201 162.03 60.0071 161.585 60.0151C161.14 60.0241 161.311 60.3711 161.965 60.7871C162.619 61.2021 163.387 62.8261 163.671 64.3941C163.955 65.9621 164.883 68.0131 165.732 68.9511C166.581 69.8901 167.276 71.0371 167.276 71.5001C167.276 71.9631 168.051 73.1991 168.998 74.2451C170.358 75.7481 170.41 76.0801 169.248 75.8241C168.378 75.6331 167.909 76.1021 168.1 76.9721C168.342 78.0701 167.896 77.9671 166.35 76.5671C164.077 74.5101 163.459 73.0771 165.618 74.8691C168.309 77.1021 168.069 74.6971 165.207 70.7461C163.592 68.5161 161.792 64.9161 161.207 62.7451C160.162 58.8631 160.442 56.8411 161.735 58.9331ZM101.776 59.0001C101.436 59.5501 100.96 60.0001 100.717 60.0001C100.474 60.0001 100.276 59.5501 100.276 59.0001C100.276 58.4501 100.753 58.0001 101.335 58.0001C101.917 58.0001 102.116 58.4501 101.776 59.0001ZM105.309 62.0001C100.735 68.7261 89.9891 78.0091 82.6711 81.5561C78.7631 83.4501 74.4881 84.9611 73.1711 84.9141C70.8651 84.8311 70.8761 84.7981 73.4851 84.0121C79.2531 82.2731 100.779 67.7711 99.9551 66.1801C99.7611 65.8061 101.422 63.9251 103.646 62.0001L107.689 58.5001L105.309 62.0001ZM100.276 61.3911C100.276 61.6071 97.1461 64.8171 93.3211 68.5271C84.7641 76.8251 81.2201 79.0441 74.2761 80.4571C71.2111 81.0811 71.4601 80.8171 76.2761 78.3351C79.3011 76.7761 82.0011 75.2741 82.2761 74.9971C82.5511 74.7211 85.2651 72.6051 88.3081 70.2941C91.3501 67.9841 94.9161 64.9471 96.2321 63.5471C98.3481 61.2941 100.276 60.2671 100.276 61.3911ZM152.189 66.0001C152.259 69.2291 148.206 76.3901 146.077 76.8001C144.892 77.0281 144.572 76.5841 144.931 75.2101C145.205 74.1621 144.698 71.5511 143.803 69.4091L142.175 65.5151L144.226 67.7161C145.428 69.0061 146.279 71.2791 146.282 73.2081L146.288 76.5001L147.889 73.5001C148.769 71.8501 150.085 68.9251 150.812 67.0001C151.976 63.9201 152.142 63.8001 152.189 66.0001ZM161.581 68.5131C162.495 70.4311 163.037 72.0001 162.786 72.0001C162.101 72.0001 159.066 65.8771 159.523 65.4201C159.74 65.2031 160.666 66.5941 161.581 68.5131ZM113.695 69.0001C111.562 72.8311 106.972 78.9141 103.015 83.1521C98.5791 87.9041 91.2791 91.1111 85.3441 90.9151C83.7451 90.8621 84.6991 90.3631 87.8721 89.5931C94.4081 88.0061 97.4461 85.7851 106.85 75.7191C111.074 71.1991 114.154 68.1751 113.695 69.0001ZM107.938 70.5631C105.796 74.8801 97.3841 84.0081 94.5571 85.0831C93.2541 85.5791 90.9701 86.2341 89.4821 86.5391C87.1741 87.0131 87.3241 86.7921 90.5021 85.0361C92.5511 83.9031 97.6551 79.4951 101.843 75.2381C107.267 69.7261 109.02 68.3811 107.938 70.5631ZM140.267 76.8551C140.293 80.6521 130.942 95.5301 129.204 94.4551C128.686 94.1351 128.025 94.4901 127.736 95.2431C127.418 96.0731 125.548 96.6611 122.993 96.7351C119.726 96.8291 119.339 96.6921 121.276 96.1271C123.64 95.4361 123.671 95.3371 121.855 94.3121C120.064 93.3031 120.148 93.1181 123.081 91.6011C124.813 90.7051 128.49 86.9871 131.253 83.3371C134.016 79.6881 136.276 77.0121 136.276 77.3911C136.276 78.6511 132.321 85.8541 131.274 86.5011C130.707 86.8521 130.45 87.4731 130.703 87.8821C130.956 88.2921 129.363 89.7931 127.164 91.2201C124.732 92.7971 123.603 94.0841 124.283 94.5041C124.899 94.8851 126.274 94.4071 127.339 93.4431C128.404 92.4791 129.276 92.0481 129.276 92.4851C129.276 93.5071 133.504 87.2751 137.299 80.6581C138.926 77.8211 140.261 76.1101 140.267 76.8551ZM119.753 77.9641C120.117 78.5521 120.833 78.7741 121.345 78.4571C124.766 76.3431 117.674 87.5951 113.652 90.6631C111.388 92.3901 108.689 93.3621 105.52 93.5931L100.776 93.9391L105.276 93.0131C108.914 92.2631 110.781 90.9941 115.026 86.3811C117.914 83.2431 120.276 80.2991 120.276 79.8381C120.276 78.1191 118.448 79.0891 116.721 81.7241C114.096 85.7301 112.155 87.5531 108.576 89.3731C103.178 92.1171 102.78 91.1811 107.886 87.7501C110.546 85.9631 113.774 82.9251 115.059 81.0001C117.662 77.1011 118.776 76.3811 119.753 77.9641ZM69.8031 81.0441C70.1281 81.5701 69.4671 82.0001 68.3351 82.0001C65.9201 82.0001 65.6771 81.4441 67.7441 80.6511C68.5511 80.3411 69.4781 80.5181 69.8031 81.0441ZM148.276 81.3971C148.276 84.9991 141.095 94.9641 136.889 97.1991C135.486 97.9451 136.008 96.9541 138.443 94.2501C140.461 92.0101 142.665 89.1251 143.343 87.8381C144.868 84.9421 148.276 80.4931 148.276 81.3971ZM58.2761 82.5001C59.6511 83.2861 60.3001 83.9451 59.7171 83.9651C59.1351 83.9841 57.7851 83.3391 56.7171 82.5321C54.2481 80.6641 55.0371 80.6481 58.2761 82.5001ZM152.276 82.7981C152.276 85.6171 147.653 93.5241 143.893 97.1371C141.668 99.2751 138.257 101.466 136.312 102.007C132.112 103.173 127.275 103.304 127.279 102.25C127.281 101.838 129.278 101.489 131.717 101.475C137.554 101.443 142.368 97.5971 148.026 88.4481C150.363 84.6671 152.276 82.1251 152.276 82.7981ZM162.261 87.5001C159.589 92.5741 158.545 93.8781 154.449 97.2561C148.709 101.991 149.076 100.248 155.083 94.2501C158.25 91.0881 161.635 87.3751 162.604 86.0001C163.742 84.3861 163.621 84.9181 162.261 87.5001ZM64.5261 84.6621C63.8381 84.9401 62.7131 84.9401 62.0261 84.6621C61.3381 84.3851 61.9011 84.1581 63.2761 84.1581C64.6511 84.1581 65.2131 84.3851 64.5261 84.6621ZM69.4631 85.6831C68.7421 85.9721 67.8791 85.9361 67.5471 85.6041C67.2151 85.2721 67.8051 85.0361 68.8591 85.0791C70.0241 85.1271 70.2611 85.3641 69.4631 85.6831ZM79.7761 89.0001C81.4061 89.7011 81.4641 89.8721 80.0851 89.9301C79.1551 89.9681 78.1161 89.5501 77.7761 89.0001C77.0651 87.8501 77.1001 87.8501 79.7761 89.0001ZM166.276 90.6791C166.276 92.8351 158.734 100.241 154.197 102.54C148.341 105.508 143.238 105.842 143.355 103.25C143.402 102.205 143.637 102.003 143.938 102.75C144.216 103.438 145.217 104 146.163 104C149.61 104 158.352 98.7201 162.265 94.2751C164.471 91.7691 166.276 90.1511 166.276 90.6791Z" fill="#F5F5F5"/>
</svg>
