<svg viewBox="0 0 241 50" xmlns="http://www.w3.org/2000/svg">
  <path d="M41.3 48.3c1.5 1.1 3.2 1.7 5 1.7 1.3 0 2.5-.3 3.6-.9 2.9-1.4 4.6-4.2 4.5-7.3V8.3c0-3.2-1.8-6-4.6-7.4-1-.5-2.1-.8-3.3-.9-1.8 0-3.6.5-5.1 1.7l-14 10.6-.1-.1-.1.1-14-10.6C11.7.5 9.9 0 8.1 0 6.9.1 5.8.4 4.8.9c-1.5.7-2.7 1.7-3.5 3V4c-.1 0-.1.1-.2.2C.4 5.4 0 6.8 0 8.3v33.4c0 3.2 1.8 6 4.6 7.4 1.2.6 2.5.9 3.6.9 1.8 0 3.5-.6 5-1.7l14-10.7 14.1 10.7zm8.5-6.5v.1c0 1.3-.7 2.5-1.9 3.1s-2.6.4-3.7-.4l-13-9.9.1-.1h-.1l1-.8 7.6-5.8 10 7.7v6.1zm0-21.5v9.4L43.7 25h.1-.1l6.1-4.7c0-.1 0 0 0 0zM44.2 5.5c1.1-.8 2.5-.9 3.7-.3.3.1.6.3.8.5.7.6 1.1 1.5 1.1 2.6v6l-10 7.7-8.6-6.7 13-9.8zM4.7 14.2V8.3c0-1.4.8-2.6 2-3.2.5-.3 1.1-.4 1.6-.4.7 0 1.4.3 2 .7l13 9.8-8.6 6.8-10-7.8zm0 15.4v-9.4l6.1 4.7h-.1.1l-6.1 4.7c0 .1 0 0 0 0zm8.8 12.5l-3.2 2.4c-1.1.9-2.5 1-3.7.4-1.2-.6-1.9-1.7-1.9-3.1v-6.1l.1-.1L7 33.9c2.7-2.1 7.7-6 7.7-6h.1l8.6 6.7s-6.3 4.8-9.9 7.5zm13.7-10.5h-.1l-.7-.6-7.9-6.1 8.7-6.7 4.2 3.3 4.4 3.4-8.1 6.3-.3.2-.2.2z" fill="black"/>
</svg>