<svg width="184" height="106" viewBox="0 0 184 106" fill="none" xmlns="http://www.w3.org/2000/svg">
<path fill-rule="evenodd" clip-rule="evenodd" d="M172.82 3.559C167.688 14.322 156.212 25.661 145.333 30.719C138.997 33.665 136.658 34.193 127.833 34.669C113.955 35.417 107.371 33.695 87.1474 24.03C66.0424 13.944 61.4684 12.604 48.1474 12.6C39.5934 12.598 36.8134 12.985 33.1474 14.688C22.9444 19.428 18.2944 27.918 17.1054 43.983C15.8314 61.203 11.7824 72.2 3.42638 81.133C-0.145619 84.951 -0.719619 85.998 0.760381 85.99C4.30338 85.972 13.0674 81.133 17.3814 76.813C22.4834 71.704 24.4494 67.821 27.8214 56.19C30.1914 48.016 33.0004 41.291 33.1224 43.5C33.1534 44.05 33.6504 43.825 34.2284 43C35.0504 41.826 35.1414 41.989 34.6454 43.75C33.8024 46.748 35.5364 46.636 36.9184 43.603C38.6374 39.831 44.5564 35.927 49.8394 35.082C54.7044 34.303 54.2684 33.429 48.6474 32.693C46.9974 32.477 48.3474 32.235 51.6474 32.155C59.4234 31.968 63.0974 33.052 76.5414 39.499C90.2324 46.063 95.5544 47.63 110.168 49.397C116.482 50.161 120.309 50.834 118.675 50.893C115.734 50.999 115.723 51.02 117.675 52.874C119.945 55.03 131.307 59.464 140.995 61.973C144.654 62.92 149.145 64.613 150.977 65.735L154.306 67.775L152.004 69.388C149.341 71.253 146.694 71.543 147.737 69.854C148.229 69.059 147.699 68.896 146.004 69.321C131.351 72.999 119.244 69.56 99.1474 56.011C88.5124 48.841 87.6104 48.322 88.6214 49.957C90.1154 52.375 86.8034 53.025 84.4164 50.783C83.1734 49.615 81.9344 48.88 81.6644 49.15C80.8214 49.993 92.3424 60.842 99.0064 65.479C102.503 67.913 108.803 71.318 113.006 73.047C127.397 78.967 129.219 81.631 118.245 80.711C107.504 79.811 94.3234 71.878 84.5394 60.426C79.0004 53.942 76.8544 53.26 81.0124 59.304C85.1674 65.343 96.5214 75.722 101.752 78.263C104.169 79.438 106.147 80.796 106.147 81.281C106.147 82.24 100.99 79.334 94.6474 74.8C88.3234 70.28 78.1274 59.85 78.8294 58.619C79.1804 58.004 79.1074 57.826 78.6664 58.224C78.2264 58.622 76.5484 57.497 74.9384 55.724L72.0114 52.5L73.9764 56.5C76.9034 62.457 87.3244 73.299 95.0784 78.454C98.8394 80.954 102.418 83 103.031 83C104.71 83 104.373 87.699 102.647 88.362C101.822 88.678 101.147 88.537 101.147 88.048C101.147 87.559 99.6844 86.862 97.8974 86.498C92.5794 85.418 85.0374 79.565 78.6474 71.558C72.4484 63.791 69.8504 62.93 74.6924 70.248C79.3044 77.217 86.4184 84.199 90.9804 86.234C93.3634 87.297 95.0884 88.392 94.8134 88.667C94.5384 88.942 92.3254 88.288 89.8954 87.213C86.6244 85.766 83.0314 82.408 76.0624 74.286C70.8844 68.251 66.4924 63.708 66.3024 64.191C65.8244 65.407 75.7784 78.403 82.0064 84.694C87.4064 90.149 88.4954 93 85.1784 93C83.8394 93 83.3944 92.52 83.7854 91.5C84.1964 90.43 83.6854 89.995 82.0044 89.984C77.4944 89.952 71.7864 85.681 67.3054 78.987C64.9174 75.419 62.2924 72.347 61.4734 72.161C60.2204 71.876 60.2524 72.272 61.6714 74.661L63.3584 77.5L61.1694 74.75C58.5844 71.503 57.5764 71.279 57.5764 73.952C57.5764 75.026 57.7764 75.704 58.0224 75.459C58.2674 75.213 60.0144 77.597 61.9034 80.756C63.7924 83.915 66.1954 87.429 67.2424 88.564C68.2904 89.7 69.1474 91.837 69.1474 93.314C69.1474 96.138 67.7274 96.955 66.8404 94.642C66.5534 93.895 64.8574 92.992 63.0714 92.635C59.1864 91.858 53.4614 86.134 49.4804 79.046C47.9224 76.272 46.3154 74.002 45.9104 74.001C45.0984 74 49.4914 84.409 51.3644 86.924C52.4294 88.354 52.3784 88.356 50.8164 86.938C49.8694 86.079 47.3184 82.029 45.1474 77.938C42.9764 73.847 41.1884 71.026 41.1734 71.668C41.1594 72.311 40.8464 73.622 40.4774 74.582C40.0554 75.683 40.1964 76.088 40.8604 75.678C41.4664 75.303 42.7924 77.071 43.9874 79.849C45.1284 82.502 47.5994 86.956 49.4784 89.749C53.6264 95.913 54.7374 101 51.9344 101C48.9134 101 42.6084 97.336 39.7174 93.901C36.0544 89.547 31.9234 81.172 32.7664 79.808C33.2064 79.096 32.9994 78.973 32.1954 79.471C31.2364 80.063 31.0944 79.516 31.6044 77.195C32.1474 74.725 31.8794 73.927 30.2114 73.034C28.4594 72.096 28.1474 72.22 28.1474 73.85C28.1474 77.812 31.7434 86.711 35.7824 92.745C38.5094 96.819 39.7804 99.687 39.4384 100.995C38.8644 103.189 36.1474 103.785 36.1474 101.716C36.1474 101.009 34.7824 99.625 33.1134 98.639C31.4454 97.653 27.5564 93.495 24.4734 89.398C21.3894 85.3 18.6984 82.116 18.4934 82.32C17.8304 82.984 21.2754 90.409 23.7964 93.75C25.1454 95.538 25.8294 97 25.3174 97C24.8044 97 23.1834 95.425 21.7154 93.5C20.2474 91.575 19.2414 90 19.4814 90C19.7214 90 18.7314 88.696 17.2824 87.103C15.8334 85.509 14.5084 84.336 14.3384 84.495C13.5754 85.21 17.5144 92.741 20.6584 96.579C24.6164 101.409 30.8164 104.75 36.6474 105.195C40.3304 105.476 40.6714 105.288 40.9564 102.826C41.2614 100.187 41.3104 100.17 44.6744 101.576C46.5494 102.359 49.9184 103 52.1604 103H56.2384L55.5894 99.54L54.9394 96.08L58.2874 97.04C62.4474 98.233 68.1944 98.256 70.0404 97.087C70.8254 96.59 71.2054 95.331 70.9104 94.204C70.4104 92.291 70.5404 92.266 73.8494 93.649C75.8934 94.503 79.6304 94.973 82.9784 94.797C88.0034 94.534 88.6404 94.261 88.5834 92.397C88.5234 90.415 88.9094 90.322 95.2534 90.775C103.835 91.389 107.582 90.545 106.642 88.208C106.264 87.269 105.733 85.957 105.461 85.294C105.089 84.386 105.791 84.324 108.3 85.044C115.791 87.192 126.99 85.031 129.135 81.022C129.771 79.833 131.867 79.073 135.777 78.614C144.848 77.548 158.147 70.703 158.147 67.1C158.147 66.205 159.985 64.353 162.233 62.986C169.227 58.73 178.308 45.284 180.711 35.626L181.426 32.752L176.774 35.478C169.338 39.836 168.318 38.027 174.588 31.604C181.159 24.874 183.589 18.593 183.262 9.183L183.147 5.866L178.397 9.639C175.784 11.714 173.127 13.789 172.49 14.251C171.854 14.712 172.406 12.482 173.717 9.295C176.176 3.315 176.752 0 175.332 0C174.884 0 173.754 1.601 172.82 3.559ZM180.517 14.25C179.581 20.335 175.931 27.059 171.284 31.257C166.389 35.68 163.339 37.307 155.884 39.474C152.729 40.391 150.147 41.271 150.147 41.428C150.147 42.086 168.926 40.859 172.091 39.995C173.985 39.477 175.757 39.277 176.029 39.549C176.789 40.308 172.311 49 171.16 49C170.603 49 170.147 49.704 170.147 50.565C170.147 51.426 167.867 54.351 165.08 57.065C160.614 61.416 159.508 62 155.747 62C152.909 62 151.48 61.564 151.48 60.698C151.48 59.87 152.421 59.528 154.064 59.76C157.188 60.202 167.146 52.457 170.471 47C172.427 43.789 172.093 43.959 166.415 49.06C156.982 57.535 156.723 57.62 146.414 55.61C134.116 53.213 129.789 51.844 131.361 50.846C132.335 50.229 132.26 50.027 131.05 50.015C129.495 50 124.952 53.3 125.415 54.108C125.543 54.33 124.87 53.609 123.919 52.506C121.518 49.718 121.718 49 124.894 49C129.482 49 142.681 44.102 148.839 40.113C155.21 35.987 163.991 26.915 167.442 20.893C168.655 18.777 170.777 16.575 172.159 16C173.541 15.425 176.016 13.856 177.659 12.513C179.302 11.17 180.765 10.056 180.909 10.036C181.053 10.016 180.877 11.913 180.517 14.25ZM45.1474 15.699C43.7724 15.934 41.1854 16.512 39.3974 16.983C37.6094 17.454 36.1474 17.456 36.1474 16.989C36.1474 15.966 39.3814 15.272 44.1474 15.272C46.5864 15.272 46.8894 15.402 45.1474 15.699ZM63.5594 16.978C67.8124 18.065 78.3474 22.295 86.9694 26.378C95.5924 30.46 104.672 34.318 107.147 34.95C109.622 35.582 112.322 36.362 113.147 36.683C113.972 37.004 118.523 37.172 123.26 37.055C131.115 36.861 131.918 37.018 132.394 38.835C133.047 41.334 131.527 41.779 119.647 42.566C113.114 42.999 108.454 42.704 102.647 41.488C88.9374 38.619 89.1924 38.632 93.1474 41.003L96.6474 43.1L92.5534 42.563C90.3014 42.268 83.6364 39.722 77.7404 36.906C65.1654 30.899 58.7944 29.028 50.8574 29.012C38.1454 28.986 29.9934 37.638 25.6644 55.75C23.8994 63.138 22.3894 65.856 23.5814 59.5C24.5454 54.362 22.6094 55.196 20.7234 60.731C18.7904 66.404 13.2854 75.733 11.4564 76.435C9.52338 77.177 9.86638 75.281 12.0644 73.083C13.1184 72.029 13.6804 70.832 13.3144 70.423C12.9474 70.014 13.1904 69.991 13.8544 70.372C15.3404 71.225 18.8164 65.041 17.3704 64.117C16.7584 63.726 16.8874 60.566 17.7224 55.5C18.4484 51.1 19.0654 45.827 19.0944 43.781C19.1314 41.151 19.5284 40.209 20.4504 40.563C21.2924 40.886 22.5804 39.067 24.0904 35.425C26.8584 28.745 31.8124 23.478 37.8274 20.817C42.6674 18.677 53.6984 18.268 60.6474 19.972C70.0284 22.272 68.9344 20.21 59.1474 17.147C50.7724 14.525 53.5544 14.419 63.5594 16.978ZM175.679 19.571C173.742 23.168 168.017 28.416 160.665 33.336C156.523 36.107 156.995 36.758 161.832 34.944C168.83 32.319 175.457 25.709 178.066 18.75C179.545 14.808 177.949 15.356 175.679 19.571ZM162.098 24.563C152.067 37.565 137.744 45.167 120.931 46.411L113.647 46.95L121.77 45.509C130.445 43.969 140.693 40.543 141.753 38.828C142.151 38.185 141.679 38 140.522 38.345C135.934 39.715 133.147 40.165 133.147 39.537C133.147 38.032 135.956 36.224 140.791 34.618C143.595 33.687 148.471 31.37 151.626 29.47C154.782 27.57 157.877 26.309 158.505 26.668C159.133 27.027 159.3 26.939 158.877 26.473C158.088 25.606 165.148 17.667 165.973 18.493C166.224 18.744 164.48 21.476 162.098 24.563ZM26.3304 25.217C25.6134 25.934 25.1474 25.993 25.1474 25.367C25.1474 24.798 25.4474 24.033 25.8144 23.667C26.1804 23.3 26.7134 23.233 26.9974 23.517C27.2814 23.801 26.9814 24.566 26.3304 25.217ZM61.1474 36.369C61.1474 36.713 62.7744 38.796 64.7634 40.997C66.7524 43.199 67.9904 44.994 67.5134 44.986C64.9764 44.946 62.2524 43.64 62.8134 42.732C63.1684 42.157 62.9774 41.987 62.3854 42.353C61.7974 42.717 60.1524 42.572 58.7314 42.032C57.3104 41.492 56.1544 41.376 56.1624 41.775C56.1844 42.788 58.1134 45.677 58.1324 44.724C58.1404 44.298 59.4484 44.622 61.0394 45.444C63.7214 46.831 66.8704 52.61 65.6244 53.857C65.0354 54.445 56.0284 50.023 52.2384 47.285C47.4224 43.807 50.6394 48.38 55.7224 52.239C59.8474 55.37 60.5914 56.426 60.3004 58.739C60.1094 60.257 59.7924 61.666 59.5974 61.87C58.8904 62.604 49.0224 54.703 46.4764 51.364C45.0414 49.484 43.6694 48.144 43.4274 48.387C42.6384 49.176 45.3244 53.274 49.6874 57.939L53.9564 62.503L52.2484 65.806L50.5404 69.108L45.5934 63.756C42.8734 60.812 39.8454 56.902 38.8664 55.066C37.8864 53.231 36.7854 52.029 36.4184 52.396C36.0514 52.763 37.0694 55.498 38.6794 58.475L41.6064 63.887L39.3774 66.903C38.1504 68.562 37.1474 70.387 37.1474 70.96C37.1474 71.532 36.6744 72 36.0964 72C34.6304 72 32.1474 65.694 32.1474 61.973C32.1474 60.167 31.7314 59.139 31.1474 59.5C28.5674 61.095 30.9604 71.54 34.7814 75.361C37.8574 78.437 39.1474 78.003 39.1474 73.891C39.1474 72.246 39.8504 69.541 40.7094 67.88L42.2714 64.86L46.7594 68.996C51.6134 73.47 53.4894 73.712 53.9274 69.922C54.7304 62.976 54.8464 62.847 58.7894 64.495C60.7704 65.323 62.5404 66 62.7224 66C62.9044 66 62.7854 63.737 62.4574 60.97L61.8614 55.941L64.5694 56.97C67.9664 58.262 71.1474 58.298 71.1474 57.044C71.1474 56.519 70.0224 54.431 68.6474 52.405C65.3814 47.592 65.4914 46.951 69.3904 48.07C77.1504 50.295 78.4324 48.046 71.8604 43.737C69.5434 42.218 66.1844 39.797 64.3974 38.359C62.6104 36.921 61.1474 36.025 61.1474 36.369ZM173.647 41C173.307 41.55 173.506 42 174.088 42C174.67 42 175.147 41.55 175.147 41C175.147 40.45 174.949 40 174.706 40C174.463 40 173.987 40.45 173.647 41ZM100.365 59.989C102.96 61.806 104.803 63.747 104.461 64.301C104.104 64.879 104.339 65 105.011 64.584C105.656 64.186 107.789 64.852 109.751 66.064C111.713 67.277 116.318 69.242 119.983 70.432C123.648 71.621 126.759 73.136 126.897 73.797C127.213 75.316 127.453 75.344 121.054 73.128C112.808 70.272 102.187 64.745 102.858 63.659C103.187 63.126 102.94 63.01 102.31 63.399C101.017 64.198 93.6874 59.464 90.6474 55.866L88.6474 53.5L90.7264 55.25C93.9314 57.949 94.7784 57.321 92.0754 54.25L89.6544 51.5L92.6514 54.092C94.2994 55.517 97.7704 58.171 100.365 59.989ZM137.147 57.031C134.305 57.762 133.686 57.555 134.548 56.16C134.878 55.625 136.161 55.458 137.398 55.787C139.636 56.384 139.635 56.39 137.147 57.031ZM22.2694 66.675C21.0904 68.702 20.8064 68.053 21.7714 65.539C22.1134 64.645 22.6054 64.124 22.8624 64.382C23.1204 64.639 22.8534 65.671 22.2694 66.675ZM15.2694 67.675C14.0904 69.702 13.8064 69.053 14.7714 66.539C15.1134 65.645 15.6054 65.124 15.8624 65.382C16.1204 65.639 15.8534 66.671 15.2694 67.675ZM19.1474 72.378C19.1474 72.585 18.3594 73.373 17.3974 74.128C15.8114 75.371 15.7764 75.336 17.0194 73.75C18.3264 72.084 19.1474 71.555 19.1474 72.378ZM30.8304 76.188C30.5114 76.985 30.2744 76.748 30.2264 75.583C30.1834 74.529 30.4194 73.939 30.7514 74.271C31.0834 74.603 31.1194 75.466 30.8304 76.188ZM34.6074 81.75C35.2634 84.414 38.7714 90.809 41.3974 94.123C43.0354 96.192 49.2334 99.991 50.9784 99.996C51.7094 99.998 49.8124 97.719 46.7614 94.93C43.7104 92.142 39.8164 87.417 38.1074 84.43C34.6694 78.421 33.5834 77.589 34.6074 81.75ZM72.7384 89.743C72.0444 90.436 70.1474 89.027 70.1474 87.819C70.1474 87.155 70.7214 87.231 71.6714 88.02C72.5094 88.716 72.9894 89.491 72.7384 89.743ZM57.6474 92.83C58.7474 93.44 59.1104 93.953 58.4534 93.97C57.7964 93.986 56.1994 92.987 54.9044 91.75C53.6094 90.513 53.2464 90 54.0984 90.61C54.9504 91.221 56.5474 92.219 57.6474 92.83Z" fill="#F5F5F5"/>
<path fill-rule="evenodd" clip-rule="evenodd" d="M172.82 3.559C167.688 14.322 156.212 25.661 145.333 30.719C138.997 33.665 136.658 34.193 127.833 34.669C113.955 35.417 107.371 33.695 87.1474 24.03C66.0424 13.944 61.4684 12.604 48.1474 12.6C39.5934 12.598 36.8134 12.985 33.1474 14.688C22.9444 19.428 18.2944 27.918 17.1054 43.983C15.8314 61.203 11.7824 72.2 3.42638 81.133C-0.145619 84.951 -0.719619 85.998 0.760381 85.99C4.30338 85.972 13.0674 81.133 17.3814 76.813C22.4834 71.704 24.4494 67.821 27.8214 56.19C30.1914 48.016 33.0004 41.291 33.1224 43.5C33.1534 44.05 33.6504 43.825 34.2284 43C35.0504 41.826 35.1414 41.989 34.6454 43.75C33.8024 46.748 35.5364 46.636 36.9184 43.603C38.6374 39.831 44.5564 35.927 49.8394 35.082C54.7044 34.303 54.2684 33.429 48.6474 32.693C46.9974 32.477 48.3474 32.235 51.6474 32.155C59.4484 31.968 63.3474 33.116 76.6474 39.518C89.2834 45.6 95.2434 47.462 107.147 49.043C117.445 50.411 125.979 49.618 135.377 46.422C148.331 42.016 158.236 34.452 165.834 23.164C167.931 20.049 170.005 17.343 170.443 17.151C170.881 16.959 173.469 15.302 176.194 13.468L181.149 10.134L180.506 14.317C179.581 20.338 175.914 27.074 171.284 31.257C166.389 35.68 163.339 37.307 155.884 39.474C152.729 40.391 150.147 41.271 150.147 41.428C150.147 42.086 168.926 40.859 172.091 39.995C173.985 39.477 175.757 39.277 176.029 39.549C176.789 40.308 172.311 49 171.16 49C170.603 49 170.147 49.704 170.147 50.565C170.147 51.426 167.867 54.351 165.08 57.065C160.614 61.416 159.508 62 155.747 62C152.909 62 151.48 61.564 151.48 60.698C151.48 59.87 152.421 59.528 154.064 59.76C157.188 60.202 167.146 52.457 170.471 47C172.427 43.789 172.093 43.959 166.415 49.06C156.982 57.535 156.723 57.62 146.414 55.61C134.116 53.213 129.789 51.844 131.361 50.846C132.335 50.229 132.26 50.027 131.05 50.015C129.487 50 124.957 53.298 125.415 54.118C125.543 54.347 125.03 53.738 124.275 52.767C123.415 51.659 121.56 51 119.303 51C115.748 51 115.728 51.024 117.675 52.874C119.945 55.03 131.307 59.464 140.995 61.973C144.654 62.92 149.145 64.613 150.977 65.735L154.306 67.775L152.004 69.388C149.341 71.253 146.694 71.543 147.737 69.854C148.229 69.059 147.699 68.896 146.004 69.321C131.351 72.999 119.244 69.56 99.1474 56.011C88.0584 48.535 88.2354 48.622 88.8374 50.924C89.4734 53.357 87.0844 53.158 84.1894 50.538C83.0594 49.515 81.9184 48.895 81.6544 49.16C80.8194 49.995 92.3814 60.869 99.0064 65.479C102.503 67.913 108.803 71.318 113.006 73.047C127.397 78.967 129.219 81.631 118.245 80.711C107.504 79.811 94.3234 71.878 84.5394 60.426C79.0004 53.942 76.8544 53.26 81.0124 59.304C85.1674 65.343 96.5214 75.722 101.752 78.263C104.169 79.438 106.147 80.796 106.147 81.281C106.147 82.24 100.99 79.334 94.6474 74.8C88.3234 70.28 78.1274 59.85 78.8294 58.619C79.1804 58.004 79.1074 57.826 78.6664 58.224C78.2264 58.622 76.5484 57.497 74.9384 55.724L72.0114 52.5L73.9764 56.5C76.9034 62.457 87.3244 73.299 95.0784 78.454C98.8394 80.954 102.418 83 103.031 83C104.71 83 104.373 87.699 102.647 88.362C101.822 88.678 101.147 88.537 101.147 88.048C101.147 87.559 99.6844 86.862 97.8974 86.498C92.5794 85.418 85.0374 79.565 78.6474 71.558C72.4484 63.791 69.8504 62.93 74.6924 70.248C79.3044 77.217 86.4184 84.199 90.9804 86.234C93.3634 87.297 95.0884 88.392 94.8134 88.667C94.5384 88.942 92.3254 88.288 89.8954 87.213C86.6244 85.766 83.0314 82.408 76.0624 74.286C70.8844 68.251 66.4924 63.708 66.3024 64.191C65.8244 65.407 75.7784 78.403 82.0064 84.694C87.4064 90.149 88.4954 93 85.1784 93C83.8394 93 83.3944 92.52 83.7854 91.5C84.1964 90.43 83.6854 89.995 82.0044 89.984C77.4944 89.952 71.7864 85.681 67.3054 78.987C64.9174 75.419 62.2924 72.347 61.4734 72.161C60.2204 71.876 60.2524 72.272 61.6714 74.661L63.3584 77.5L61.1694 74.75C58.5844 71.503 57.5764 71.279 57.5764 73.952C57.5764 75.026 57.7764 75.704 58.0224 75.459C58.2674 75.213 60.0144 77.597 61.9034 80.756C63.7924 83.915 66.1954 87.429 67.2424 88.564C68.2904 89.7 69.1474 91.837 69.1474 93.314C69.1474 96.138 67.7274 96.955 66.8404 94.642C66.5534 93.895 64.8574 92.992 63.0714 92.635C59.1864 91.858 53.4614 86.134 49.4804 79.046C47.9224 76.272 46.3154 74.002 45.9104 74.001C45.0984 74 49.4914 84.409 51.3644 86.924C52.4294 88.354 52.3784 88.356 50.8164 86.938C49.8694 86.079 47.3184 82.029 45.1474 77.938C42.9764 73.847 41.1884 71.026 41.1734 71.668C41.1594 72.311 40.8464 73.622 40.4774 74.582C40.0554 75.683 40.1964 76.088 40.8604 75.678C41.4664 75.303 42.7924 77.071 43.9874 79.849C45.1284 82.502 47.5994 86.956 49.4784 89.749C53.6264 95.913 54.7374 101 51.9344 101C48.9134 101 42.6084 97.336 39.7174 93.901C36.0544 89.547 31.9234 81.172 32.7664 79.808C33.2064 79.096 32.9994 78.973 32.1954 79.471C31.2364 80.063 31.0944 79.516 31.6044 77.195C32.1474 74.725 31.8794 73.927 30.2114 73.034C28.4594 72.096 28.1474 72.22 28.1474 73.85C28.1474 77.812 31.7434 86.711 35.7824 92.745C38.5094 96.819 39.7804 99.687 39.4384 100.995C38.8644 103.189 36.1474 103.785 36.1474 101.716C36.1474 101.009 34.7824 99.625 33.1134 98.639C31.4454 97.653 27.5564 93.495 24.4734 89.398C21.3894 85.3 18.6984 82.116 18.4934 82.32C17.8304 82.984 21.2754 90.409 23.7964 93.75C25.1454 95.538 25.8294 97 25.3174 97C24.8044 97 23.1834 95.425 21.7154 93.5C20.2474 91.575 19.2414 90 19.4814 90C19.7214 90 18.7314 88.696 17.2824 87.103C15.8334 85.509 14.5084 84.336 14.3384 84.495C13.5754 85.21 17.5144 92.741 20.6584 96.579C24.6164 101.409 30.8164 104.75 36.6474 105.195C40.3304 105.476 40.6714 105.288 40.9564 102.826C41.2614 100.187 41.3104 100.17 44.6744 101.576C46.5494 102.359 49.9184 103 52.1604 103H56.2384L55.5894 99.54L54.9394 96.08L58.2874 97.04C62.4474 98.233 68.1944 98.256 70.0404 97.087C70.8254 96.59 71.2054 95.331 70.9104 94.204C70.4104 92.291 70.5404 92.266 73.8494 93.649C75.8934 94.503 79.6304 94.973 82.9784 94.797C88.0034 94.534 88.6404 94.261 88.5834 92.397C88.5234 90.415 88.9094 90.322 95.2534 90.775C103.835 91.389 107.582 90.545 106.642 88.208C106.264 87.269 105.733 85.957 105.461 85.294C105.089 84.386 105.791 84.324 108.3 85.044C115.791 87.192 126.99 85.031 129.135 81.022C129.771 79.833 131.867 79.073 135.777 78.614C144.848 77.548 158.147 70.703 158.147 67.1C158.147 66.205 159.985 64.353 162.233 62.986C169.227 58.73 178.308 45.284 180.711 35.626L181.426 32.752L176.774 35.478C169.338 39.836 168.318 38.027 174.588 31.604C181.159 24.874 183.589 18.593 183.262 9.183L183.147 5.866L178.397 9.639C175.784 11.714 173.127 13.789 172.49 14.251C171.854 14.712 172.406 12.482 173.717 9.295C176.176 3.315 176.752 0 175.332 0C174.884 0 173.754 1.601 172.82 3.559ZM45.1474 15.699C43.7724 15.934 41.1854 16.512 39.3974 16.983C37.6094 17.454 36.1474 17.456 36.1474 16.989C36.1474 15.966 39.3814 15.272 44.1474 15.272C46.5864 15.272 46.8894 15.402 45.1474 15.699ZM63.5594 16.978C67.8124 18.065 78.3474 22.295 86.9694 26.378C95.5924 30.46 104.672 34.318 107.147 34.95C109.622 35.582 112.322 36.362 113.147 36.683C113.972 37.004 118.523 37.172 123.26 37.055C131.115 36.861 131.918 37.018 132.394 38.835C133.047 41.334 131.527 41.779 119.647 42.566C113.114 42.999 108.454 42.704 102.647 41.488C88.9374 38.619 89.1924 38.632 93.1474 41.003L96.6474 43.1L92.5534 42.563C90.3014 42.268 83.6364 39.722 77.7404 36.906C65.1654 30.899 58.7944 29.028 50.8574 29.012C38.1454 28.986 29.9934 37.638 25.6644 55.75C23.8994 63.138 22.3894 65.856 23.5814 59.5C24.5454 54.362 22.6094 55.196 20.7234 60.731C18.7904 66.404 13.2854 75.733 11.4564 76.435C9.52338 77.177 9.86638 75.281 12.0644 73.083C13.1184 72.029 13.6804 70.832 13.3144 70.423C12.9474 70.014 13.1904 69.991 13.8544 70.372C15.3404 71.225 18.8164 65.041 17.3704 64.117C16.7584 63.726 16.8874 60.566 17.7224 55.5C18.4484 51.1 19.0654 45.827 19.0944 43.781C19.1314 41.151 19.5284 40.209 20.4504 40.563C21.2924 40.886 22.5804 39.067 24.0904 35.425C26.8584 28.745 31.8124 23.478 37.8274 20.817C42.6674 18.677 53.6984 18.268 60.6474 19.972C70.0284 22.272 68.9344 20.21 59.1474 17.147C50.7724 14.525 53.5544 14.419 63.5594 16.978ZM175.679 19.571C173.742 23.168 168.017 28.416 160.665 33.336C156.523 36.107 156.995 36.758 161.832 34.944C168.83 32.319 175.457 25.709 178.066 18.75C179.545 14.808 177.949 15.356 175.679 19.571ZM162.098 24.563C152.067 37.565 137.744 45.167 120.931 46.411L113.647 46.95L121.77 45.509C130.445 43.969 140.693 40.543 141.753 38.828C142.151 38.185 141.679 38 140.522 38.345C135.934 39.715 133.147 40.165 133.147 39.537C133.147 38.032 135.956 36.224 140.791 34.618C143.595 33.687 148.471 31.37 151.626 29.47C154.782 27.57 157.877 26.309 158.505 26.668C159.133 27.027 159.3 26.939 158.877 26.473C158.088 25.606 165.148 17.667 165.973 18.493C166.224 18.744 164.48 21.476 162.098 24.563ZM26.3304 25.217C25.6134 25.934 25.1474 25.993 25.1474 25.367C25.1474 24.798 25.4474 24.033 25.8144 23.667C26.1804 23.3 26.7134 23.233 26.9974 23.517C27.2814 23.801 26.9814 24.566 26.3304 25.217ZM61.1474 36.369C61.1474 36.713 62.7744 38.796 64.7634 40.997C66.7524 43.199 67.9904 44.994 67.5134 44.986C64.9764 44.946 62.2524 43.64 62.8134 42.732C63.1684 42.157 62.9774 41.987 62.3854 42.353C61.7974 42.717 60.1524 42.572 58.7314 42.032C57.3104 41.492 56.1544 41.376 56.1624 41.775C56.1844 42.788 58.1134 45.677 58.1324 44.724C58.1404 44.298 59.4484 44.622 61.0394 45.444C63.7214 46.831 66.8704 52.61 65.6244 53.857C65.0354 54.445 56.0284 50.023 52.2384 47.285C47.4224 43.807 50.6394 48.38 55.7224 52.239C59.8474 55.37 60.5914 56.426 60.3004 58.739C60.1094 60.257 59.7924 61.666 59.5974 61.87C58.8904 62.604 49.0224 54.703 46.4764 51.364C45.0414 49.484 43.6694 48.144 43.4274 48.387C42.6384 49.176 45.3244 53.274 49.6874 57.939L53.9564 62.503L52.2484 65.806L50.5404 69.108L45.5934 63.756C42.8734 60.812 39.8454 56.902 38.8664 55.066C37.8864 53.231 36.7854 52.029 36.4184 52.396C36.0514 52.763 37.0694 55.498 38.6794 58.475L41.6064 63.887L39.3774 66.903C38.1504 68.562 37.1474 70.387 37.1474 70.96C37.1474 71.532 36.6744 72 36.0964 72C34.6304 72 32.1474 65.694 32.1474 61.973C32.1474 60.167 31.7314 59.139 31.1474 59.5C28.5674 61.095 30.9604 71.54 34.7814 75.361C37.8574 78.437 39.1474 78.003 39.1474 73.891C39.1474 72.246 39.8504 69.541 40.7094 67.88L42.2714 64.86L46.7594 68.996C51.6134 73.47 53.4894 73.712 53.9274 69.922C54.7304 62.976 54.8464 62.847 58.7894 64.495C60.7704 65.323 62.5404 66 62.7224 66C62.9044 66 62.7854 63.737 62.4574 60.97L61.8614 55.941L64.5694 56.97C67.9664 58.262 71.1474 58.298 71.1474 57.044C71.1474 56.519 70.0224 54.431 68.6474 52.405C65.3814 47.592 65.4914 46.951 69.3904 48.07C77.1504 50.295 78.4324 48.046 71.8604 43.737C69.5434 42.218 66.1844 39.797 64.3974 38.359C62.6104 36.921 61.1474 36.025 61.1474 36.369ZM173.647 41C173.307 41.55 173.506 42 174.088 42C174.67 42 175.147 41.55 175.147 41C175.147 40.45 174.949 40 174.706 40C174.463 40 173.987 40.45 173.647 41ZM100.365 59.989C102.96 61.806 104.803 63.747 104.461 64.301C104.104 64.879 104.339 65 105.011 64.584C105.656 64.186 107.789 64.852 109.751 66.064C111.713 67.277 116.318 69.242 119.983 70.432C123.648 71.621 126.759 73.136 126.897 73.797C127.213 75.316 127.453 75.344 121.054 73.128C112.808 70.272 102.187 64.745 102.858 63.659C103.187 63.126 102.94 63.01 102.31 63.399C101.017 64.198 93.6874 59.464 90.6474 55.866L88.6474 53.5L90.7264 55.25C93.9314 57.949 94.7784 57.321 92.0754 54.25L89.6544 51.5L92.6514 54.092C94.2994 55.517 97.7704 58.171 100.365 59.989ZM137.147 57.031C134.305 57.762 133.686 57.555 134.548 56.16C134.878 55.625 136.161 55.458 137.398 55.787C139.636 56.384 139.635 56.39 137.147 57.031ZM22.2694 66.675C21.0904 68.702 20.8064 68.053 21.7714 65.539C22.1134 64.645 22.6054 64.124 22.8624 64.382C23.1204 64.639 22.8534 65.671 22.2694 66.675ZM15.2694 67.675C14.0904 69.702 13.8064 69.053 14.7714 66.539C15.1134 65.645 15.6054 65.124 15.8624 65.382C16.1204 65.639 15.8534 66.671 15.2694 67.675ZM19.1474 72.378C19.1474 72.585 18.3594 73.373 17.3974 74.128C15.8114 75.371 15.7764 75.336 17.0194 73.75C18.3264 72.084 19.1474 71.555 19.1474 72.378ZM30.8304 76.188C30.5114 76.985 30.2744 76.748 30.2264 75.583C30.1834 74.529 30.4194 73.939 30.7514 74.271C31.0834 74.603 31.1194 75.466 30.8304 76.188ZM34.6074 81.75C35.2634 84.414 38.7714 90.809 41.3974 94.123C43.0354 96.192 49.2334 99.991 50.9784 99.996C51.7094 99.998 49.8124 97.719 46.7614 94.93C43.7104 92.142 39.8164 87.417 38.1074 84.43C34.6694 78.421 33.5834 77.589 34.6074 81.75ZM72.7384 89.743C72.0444 90.436 70.1474 89.027 70.1474 87.819C70.1474 87.155 70.7214 87.231 71.6714 88.02C72.5094 88.716 72.9894 89.491 72.7384 89.743ZM57.6474 92.83C58.7474 93.44 59.1104 93.953 58.4534 93.97C57.7964 93.986 56.1994 92.987 54.9044 91.75C53.6094 90.513 53.2464 90 54.0984 90.61C54.9504 91.221 56.5474 92.219 57.6474 92.83Z" fill="#F5F5F5"/>
<path fill-rule="evenodd" clip-rule="evenodd" d="M172.82 3.559C167.688 14.322 156.212 25.661 145.333 30.719C138.997 33.665 136.658 34.193 127.833 34.669C113.955 35.417 107.371 33.695 87.1474 24.03C66.0424 13.944 61.4684 12.604 48.1474 12.6C39.5934 12.598 36.8134 12.985 33.1474 14.688C22.9444 19.428 18.2944 27.918 17.1054 43.983C15.8314 61.203 11.7824 72.2 3.42638 81.133C-0.145619 84.951 -0.719619 85.998 0.760381 85.99C4.30338 85.972 13.0674 81.133 17.3814 76.813C22.4614 71.726 24.4514 67.814 27.7564 56.413C30.8064 45.894 32.1554 42.887 33.4634 43.695C34.0904 44.083 34.2324 43.663 33.8284 42.612C33.4234 41.556 33.5664 41.141 34.1994 41.532C34.7654 41.882 34.9554 43.03 34.6204 44.084C33.7454 46.842 35.6224 46.449 36.9184 43.603C38.6374 39.831 44.5564 35.927 49.8394 35.082C54.7044 34.303 54.2684 33.429 48.6474 32.693C46.9974 32.477 48.3474 32.235 51.6474 32.155C59.4484 31.968 63.3474 33.116 76.6474 39.518C89.2834 45.6 95.2434 47.462 107.147 49.043C117.445 50.411 125.979 49.618 135.377 46.422C148.331 42.016 158.236 34.452 165.834 23.164C167.931 20.049 170.005 17.343 170.443 17.151C170.881 16.959 173.469 15.302 176.194 13.468L181.149 10.134L180.506 14.317C179.581 20.338 175.914 27.074 171.284 31.257C166.389 35.68 163.339 37.307 155.884 39.474C152.729 40.391 150.147 41.271 150.147 41.428C150.147 42.086 168.926 40.859 172.091 39.995C173.985 39.477 175.774 39.294 176.067 39.586C177.23 40.75 170.373 51.731 165.34 56.763C160.236 61.868 159.793 62.09 155.323 61.802C152.733 61.635 150.87 61.07 151.147 60.537C151.422 60.007 152.772 59.69 154.147 59.833C157.204 60.149 167.29 52.22 170.471 47C172.427 43.789 172.093 43.959 166.415 49.06C156.982 57.535 156.723 57.62 146.414 55.61C134.116 53.213 129.789 51.844 131.361 50.846C132.335 50.229 132.26 50.027 131.05 50.015C129.487 50 124.957 53.298 125.415 54.118C125.543 54.347 125.03 53.738 124.275 52.767C123.415 51.659 121.56 51 119.303 51C115.748 51 115.728 51.024 117.675 52.874C119.928 55.014 132.994 60.091 141.147 61.995C146.863 63.329 154.126 66.878 154.139 68.344C154.144 68.808 153.247 69.423 152.147 69.71C151.047 69.998 150.147 70.617 150.147 71.085C150.147 71.554 149.475 71.679 148.653 71.364C147.831 71.048 147.448 70.322 147.802 69.749C148.215 69.081 147.572 68.928 146.004 69.321C131.351 72.999 119.244 69.56 99.1474 56.011C88.0584 48.535 88.2354 48.622 88.8374 50.924C89.4734 53.357 87.0844 53.158 84.1894 50.538C83.0594 49.515 81.9184 48.895 81.6544 49.16C80.8194 49.995 92.3814 60.869 99.0064 65.479C102.503 67.913 108.803 71.318 113.006 73.047C127.397 78.967 129.219 81.631 118.245 80.711C107.504 79.811 94.3234 71.878 84.5394 60.426C79.0004 53.942 76.8544 53.26 81.0124 59.304C85.2904 65.522 96.4124 75.594 102.287 78.571C105.069 79.981 107.103 81.378 106.805 81.675C105.89 82.59 94.4734 75.147 88.4074 69.68C81.5734 63.52 78.5254 59.912 78.9804 58.519C79.1644 57.959 78.9884 57.826 78.5894 58.224C78.1914 58.622 76.5484 57.497 74.9384 55.724L72.0114 52.5L73.9764 56.5C76.9034 62.457 87.3244 73.299 95.0784 78.454C98.8394 80.954 102.418 83 103.031 83C104.756 83 104.349 87.709 102.565 88.393C100.389 89.228 99.9334 89.156 100.597 88.081C100.909 87.576 99.6984 86.865 97.9064 86.5C92.5794 85.418 85.0414 79.569 78.6474 71.558C72.4484 63.791 69.8504 62.93 74.6924 70.248C79.3044 77.217 86.4184 84.199 90.9804 86.234C93.3634 87.297 95.0884 88.392 94.8134 88.667C94.5384 88.942 92.3254 88.288 89.8954 87.213C86.6244 85.766 83.0314 82.408 76.0624 74.286C70.8844 68.251 66.4924 63.708 66.3024 64.191C65.8244 65.407 75.7784 78.403 82.0064 84.694C87.8504 90.598 88.5604 93.041 84.3974 92.921C82.8844 92.878 82.2104 92.615 82.8974 92.338C84.9524 91.508 84.3124 90.001 81.8974 89.984C77.4894 89.951 71.7484 85.625 67.3054 78.987C64.9174 75.419 62.2734 72.344 61.4304 72.153C60.0924 71.849 60.1034 72.099 61.5224 74.125C62.4164 75.401 63.1454 76.907 63.1434 77.473C63.1414 78.038 62.2484 77.037 61.1584 75.25C58.9124 71.567 57.5764 71.083 57.5764 73.952C57.5764 75.026 57.7764 75.704 58.0224 75.459C58.2674 75.213 60.0144 77.597 61.9034 80.756C63.7924 83.915 66.1954 87.429 67.2424 88.564C68.2904 89.7 69.1474 91.837 69.1474 93.314C69.1474 96.138 67.7274 96.955 66.8404 94.642C66.5534 93.895 64.8574 92.992 63.0714 92.635C59.1864 91.858 53.4614 86.134 49.4804 79.046C47.9224 76.272 46.3154 74.002 45.9104 74.001C45.0984 74 49.4914 84.409 51.3644 86.924C52.4294 88.354 52.3784 88.356 50.8164 86.938C49.8694 86.079 47.3184 82.029 45.1474 77.938C42.9764 73.847 41.1884 71.026 41.1734 71.668C41.1594 72.311 40.8464 73.622 40.4774 74.582C40.0554 75.683 40.1964 76.088 40.8604 75.678C41.4664 75.303 42.7924 77.071 43.9874 79.849C45.1284 82.502 47.5994 86.956 49.4784 89.749C53.6264 95.913 54.7374 101 51.9344 101C48.9134 101 42.6084 97.336 39.7174 93.901C36.0544 89.547 31.9234 81.172 32.7664 79.808C33.2064 79.096 32.9994 78.973 32.1954 79.471C31.2364 80.063 31.0944 79.516 31.6044 77.195C32.1474 74.725 31.8794 73.927 30.2114 73.034C28.4594 72.096 28.1474 72.22 28.1474 73.85C28.1474 77.812 31.7434 86.711 35.7824 92.745C40.1374 99.25 40.6054 103 37.0624 103C35.9734 103 35.4114 102.475 35.6984 101.727C35.9674 101.027 34.8124 99.643 33.1334 98.651C31.4544 97.659 27.5564 93.495 24.4734 89.398C21.3894 85.3 18.6984 82.116 18.4934 82.32C17.8304 82.984 21.2754 90.409 23.7964 93.75C25.1454 95.538 25.8294 97 25.3174 97C24.8044 97 23.1834 95.425 21.7154 93.5C20.2474 91.575 19.2414 90 19.4814 90C19.7214 90 18.7314 88.696 17.2824 87.103C15.8334 85.509 14.5084 84.336 14.3384 84.495C13.5754 85.21 17.5144 92.741 20.6584 96.579C24.6164 101.409 30.8164 104.75 36.6474 105.195C40.3304 105.476 40.6714 105.288 40.9564 102.826C41.2614 100.187 41.3104 100.17 44.6744 101.576C46.5494 102.359 49.9184 103 52.1604 103H56.2384L55.5894 99.54L54.9394 96.08L58.2874 97.04C62.4474 98.233 68.1944 98.256 70.0404 97.087C70.8254 96.59 71.2054 95.331 70.9104 94.204C70.4104 92.291 70.5404 92.266 73.8494 93.649C75.8934 94.503 79.6304 94.973 82.9784 94.797C88.0034 94.534 88.6404 94.261 88.5834 92.397C88.5234 90.415 88.9094 90.322 95.2534 90.775C103.835 91.389 107.582 90.545 106.642 88.208C106.264 87.269 105.733 85.957 105.461 85.294C105.089 84.386 105.791 84.324 108.3 85.044C115.791 87.192 126.99 85.031 129.135 81.022C129.771 79.833 131.867 79.073 135.777 78.614C144.704 77.565 158.873 70.334 157.748 67.401C157.47 66.677 159.333 64.806 162.099 63.031C169.632 58.197 178.254 45.501 180.711 35.626L181.426 32.752L176.774 35.478C169.338 39.836 168.318 38.027 174.588 31.604C181.159 24.874 183.589 18.593 183.262 9.183L183.147 5.866L178.397 9.639C175.784 11.714 173.127 13.789 172.49 14.251C171.854 14.712 172.406 12.482 173.717 9.295C176.176 3.315 176.752 0 175.332 0C174.884 0 173.754 1.601 172.82 3.559ZM44.4064 16.014C41.5234 16.435 38.4854 17.04 37.6564 17.358C36.8264 17.677 36.1474 17.533 36.1474 17.038C36.1474 15.908 39.3494 15.276 45.1474 15.261L49.6474 15.25L44.4064 16.014ZM63.5594 16.978C67.8124 18.065 78.3474 22.295 86.9694 26.378C95.5924 30.46 104.672 34.318 107.147 34.95C109.622 35.582 112.322 36.362 113.147 36.683C113.972 37.004 118.523 37.172 123.26 37.055C131.115 36.861 131.918 37.018 132.394 38.835C133.047 41.334 131.527 41.779 119.647 42.566C113.114 42.999 108.454 42.704 102.647 41.488C88.9374 38.619 89.1924 38.632 93.1474 41.003L96.6474 43.1L92.5534 42.563C90.3014 42.268 83.6364 39.722 77.7404 36.906C65.1654 30.899 58.7944 29.028 50.8574 29.012C38.1454 28.986 29.9934 37.638 25.6644 55.75C23.8994 63.138 22.3894 65.856 23.5814 59.5C24.5454 54.362 22.6094 55.196 20.7234 60.731C18.7904 66.404 13.2854 75.733 11.4564 76.435C9.52338 77.177 9.86638 75.281 12.0644 73.083C13.1184 72.029 13.6804 70.832 13.3144 70.423C12.9474 70.014 13.1904 69.991 13.8544 70.372C15.3404 71.225 18.8164 65.041 17.3704 64.117C16.7584 63.726 16.8874 60.566 17.7224 55.5C18.4484 51.1 19.0654 45.827 19.0944 43.781C19.1314 41.151 19.5284 40.209 20.4504 40.563C21.2924 40.886 22.5804 39.067 24.0904 35.425C26.8584 28.745 31.8124 23.478 37.8274 20.817C42.6674 18.677 53.6984 18.268 60.6474 19.972C70.0284 22.272 68.9344 20.21 59.1474 17.147C50.7724 14.525 53.5544 14.419 63.5594 16.978ZM175.679 19.571C173.742 23.168 168.017 28.416 160.665 33.336C156.523 36.107 156.995 36.758 161.832 34.944C168.83 32.319 175.457 25.709 178.066 18.75C179.545 14.808 177.949 15.356 175.679 19.571ZM165.454 20.154C161.721 26.671 150.913 36.38 143.147 40.192C134.236 44.566 130.002 45.742 120.647 46.439L113.647 46.96L121.77 45.514C130.451 43.968 140.695 40.54 141.753 38.828C142.151 38.185 141.679 38 140.522 38.345C135.934 39.715 133.147 40.165 133.147 39.537C133.147 38.032 135.956 36.224 140.791 34.618C143.595 33.687 148.471 31.37 151.626 29.47C154.782 27.57 157.877 26.309 158.505 26.668C159.133 27.027 159.299 26.938 158.874 26.471C158.248 25.782 165.7 17 166.912 17C167.103 17 166.447 18.419 165.454 20.154ZM26.2484 25.712C25.2884 27.363 25.2054 27.34 25.1774 25.417C25.1444 23.102 26.4134 21.297 26.9474 22.9C27.1354 23.463 26.8204 24.729 26.2484 25.712ZM21.8304 33.188C21.5114 33.985 21.2744 33.748 21.2264 32.583C21.1834 31.529 21.4194 30.939 21.7514 31.271C22.0834 31.603 22.1194 32.466 21.8304 33.188ZM40.5824 35.924C38.4264 37.532 36.4334 38.616 36.1544 38.334C35.4244 37.595 41.3774 33.011 43.0754 33.005C43.8614 33.002 42.7394 34.316 40.5824 35.924ZM61.1474 36.369C61.1474 36.713 62.7744 38.796 64.7634 40.997C66.7524 43.199 67.9904 44.994 67.5134 44.986C64.9764 44.946 62.2524 43.64 62.8134 42.732C63.1684 42.157 62.9774 41.987 62.3854 42.353C61.7974 42.717 60.1524 42.572 58.7314 42.032C57.3104 41.492 56.1544 41.376 56.1624 41.775C56.1844 42.788 58.1134 45.677 58.1324 44.724C58.1404 44.298 59.4484 44.622 61.0394 45.444C63.7214 46.831 66.8704 52.61 65.6244 53.857C65.0354 54.445 56.0284 50.023 52.2384 47.285C47.4224 43.807 50.6394 48.38 55.7224 52.239C59.8474 55.37 60.5914 56.426 60.3004 58.739C60.1094 60.257 59.7924 61.666 59.5974 61.87C58.8904 62.604 49.0224 54.703 46.4764 51.364C45.0414 49.484 43.6694 48.144 43.4274 48.387C42.6384 49.176 45.3244 53.274 49.6874 57.939L53.9564 62.503L52.2484 65.806L50.5404 69.108L45.5934 63.756C42.8734 60.812 39.8454 56.902 38.8664 55.066C37.8864 53.231 36.7854 52.029 36.4184 52.396C36.0514 52.763 37.0694 55.498 38.6794 58.475L41.6064 63.887L39.3774 66.903C38.1504 68.562 37.1474 70.387 37.1474 70.96C37.1474 71.532 36.6744 72 36.0964 72C34.6304 72 32.1474 65.694 32.1474 61.973C32.1474 60.167 31.7314 59.139 31.1474 59.5C28.5674 61.095 30.9604 71.54 34.7814 75.361C37.8574 78.437 39.1474 78.003 39.1474 73.891C39.1474 72.246 39.8504 69.541 40.7094 67.88L42.2714 64.86L46.7594 68.996C51.6134 73.47 53.4894 73.712 53.9274 69.922C54.7304 62.976 54.8464 62.847 58.7894 64.495C60.7704 65.323 62.5404 66 62.7224 66C62.9044 66 62.7854 63.737 62.4574 60.97L61.8614 55.941L64.5694 56.97C67.9664 58.262 71.1474 58.298 71.1474 57.044C71.1474 56.519 70.0224 54.431 68.6474 52.405C65.3814 47.592 65.4914 46.951 69.3904 48.07C77.1504 50.295 78.4324 48.046 71.8604 43.737C69.5434 42.218 66.1844 39.797 64.3974 38.359C62.6104 36.921 61.1474 36.025 61.1474 36.369ZM173.647 41C173.307 41.55 173.506 42 174.088 42C174.67 42 175.147 41.55 175.147 41C175.147 40.45 174.949 40 174.706 40C174.463 40 173.987 40.45 173.647 41ZM107.416 45.656C106.739 45.93 105.389 45.947 104.416 45.693C103.443 45.439 103.997 45.215 105.647 45.195C107.297 45.175 108.093 45.382 107.416 45.656ZM100.365 59.989C102.96 61.806 104.803 63.747 104.461 64.301C104.104 64.879 104.339 65 105.011 64.584C105.656 64.186 107.789 64.852 109.751 66.064C111.713 67.277 116.318 69.242 119.983 70.432C123.648 71.621 126.759 73.136 126.897 73.797C127.213 75.316 127.453 75.344 121.054 73.128C112.808 70.272 102.187 64.745 102.858 63.659C103.187 63.126 102.94 63.01 102.31 63.399C101.017 64.198 93.6874 59.464 90.6474 55.866L88.6474 53.5L90.7264 55.25C93.9314 57.949 94.7784 57.321 92.0754 54.25L89.6544 51.5L92.6514 54.092C94.2994 55.517 97.7704 58.171 100.365 59.989ZM137.619 55.911C139.389 56.603 139.313 56.735 136.869 57.202C134.985 57.563 134.147 57.304 134.147 56.361C134.147 54.852 134.718 54.778 137.619 55.911ZM22.2694 66.675C21.0904 68.702 20.8064 68.053 21.7714 65.539C22.1134 64.645 22.6054 64.124 22.8624 64.382C23.1204 64.639 22.8534 65.671 22.2694 66.675ZM15.2694 67.675C14.0904 69.702 13.8064 69.053 14.7714 66.539C15.1134 65.645 15.6054 65.124 15.8624 65.382C16.1204 65.639 15.8534 66.671 15.2694 67.675ZM19.1474 72.378C19.1474 72.585 18.3594 73.373 17.3974 74.128C15.8114 75.371 15.7764 75.336 17.0194 73.75C18.3264 72.084 19.1474 71.555 19.1474 72.378ZM148.147 72.775C148.148 74.212 133.906 77.087 132.153 76.004C130.691 75.1 132.814 73.351 136.147 72.714C138.695 72.228 148.146 72.276 148.147 72.775ZM30.8304 76.188C30.5114 76.985 30.2744 76.748 30.2264 75.583C30.1834 74.529 30.4194 73.939 30.7514 74.271C31.0834 74.603 31.1194 75.466 30.8304 76.188ZM14.1474 77.5C13.4624 78.325 12.4214 79 11.8334 79C11.2464 79 11.6384 78.339 12.7064 77.532C15.2144 75.634 15.7044 75.624 14.1474 77.5ZM9.14738 80.339C9.14738 81.076 8.00138 82.201 6.60038 82.839C2.83638 84.554 2.53738 84.278 5.14738 81.5C7.75838 78.721 9.14738 78.318 9.14738 80.339ZM34.6074 81.75C35.2634 84.414 38.7714 90.809 41.3974 94.123C43.0354 96.192 49.2334 99.991 50.9784 99.996C51.7094 99.998 49.8124 97.719 46.7614 94.93C43.7104 92.142 39.8164 87.417 38.1074 84.43C34.6694 78.421 33.5834 77.589 34.6074 81.75ZM121.147 83C120.322 83.533 118.072 83.945 116.147 83.914C113.287 83.869 113.013 83.702 114.647 83C115.747 82.527 117.997 82.116 119.647 82.086C121.938 82.044 122.293 82.26 121.147 83ZM72.7384 89.743C72.0444 90.436 70.1474 89.027 70.1474 87.819C70.1474 87.155 70.7214 87.231 71.6714 88.02C72.5094 88.716 72.9894 89.491 72.7384 89.743ZM57.6474 92.83C58.7474 93.44 59.1104 93.953 58.4534 93.97C57.7964 93.986 56.1994 92.987 54.9044 91.75C53.6094 90.513 53.2464 90 54.0984 90.61C54.9504 91.221 56.5474 92.219 57.6474 92.83Z" fill="#F5F5F5"/>
<path fill-rule="evenodd" clip-rule="evenodd" d="M174.415 1.22614C173.034 2.95614 169.694 9.68814 170.679 8.75914C171.111 8.35114 172.093 8.54014 172.862 9.17814C173.632 9.81614 174.154 9.92514 174.022 9.41914C173.891 8.91414 174.304 6.72514 174.939 4.55614C176.188 0.289136 176.02 -0.782864 174.415 1.22614ZM180.648 8.00214C177.977 10.9811 170.542 16.0611 169.856 15.3751C169.556 15.0741 168.754 15.8801 168.073 17.1641C163.73 25.3671 143.738 43.1011 140.847 41.3141C140.293 40.9711 140.138 41.1751 140.504 41.7671C141.215 42.9171 131.413 46.2821 129.963 45.3861C129.515 45.1091 129.148 45.3061 129.148 45.8241C129.148 46.9571 126.367 47.2411 115.148 47.2541C102.535 47.2681 92.3827 44.7851 79.3437 38.4971C73.1277 35.4991 65.7327 32.3601 62.9127 31.5231C56.7397 29.6901 45.3087 29.5321 41.4447 31.2271C37.2417 33.0701 30.9417 40.4551 29.6937 45.0001C29.3157 46.3751 30.3817 45.1661 32.0617 42.3131C36.6597 34.5051 41.1237 31.5371 48.5697 31.3371C56.5297 31.1231 63.2417 33.0781 76.6787 39.5251C92.7907 47.2541 97.1147 48.2941 114.148 48.5311C127.882 48.7221 129.061 48.5811 136.463 45.8671C140.762 44.2911 145.754 41.8771 147.558 40.5011C149.361 39.1251 151.305 38.0001 151.878 38.0001C153.424 38.0001 164.755 25.5821 167.375 21.0151C168.812 18.5111 171.388 16.1051 174.377 14.4761C176.978 13.0581 179.531 11.1371 180.052 10.2071C180.572 9.27814 181.352 8.87114 181.785 9.30414C182.218 9.73714 182.027 10.9641 181.36 12.0321C180.693 13.0991 180.148 15.1551 180.148 16.6001C180.148 19.1611 176.403 27.1651 174.892 27.8351C174.476 28.0201 174.433 28.6521 174.796 29.2401C175.16 29.8281 174.998 30.0251 174.436 29.6781C173.875 29.3311 172.568 29.9971 171.532 31.1591C170.496 32.3201 167.623 34.5511 165.148 36.1161C159.304 39.8121 160.661 39.7801 168.056 36.0471C175.969 32.0521 183.315 22.4841 181.7 18.2761C181.409 17.5171 181.565 17.1401 182.047 17.4381C183.184 18.1411 183.815 13.4361 183.16 9.13514L182.648 5.77014L180.648 8.00214ZM170.712 12.7071C170.17 14.1321 170.284 14.2471 171.272 13.2671C171.956 12.5881 172.263 11.7811 171.955 11.4741C171.647 11.1661 171.088 11.7211 170.712 12.7071ZM39.6477 12.7221C31.6527 14.6831 22.5647 22.3641 19.4667 29.7801C18.6257 31.7931 17.5537 38.8531 17.0837 45.4701C16.6147 52.0861 15.9747 58.6251 15.6607 60.0001L15.0917 62.5001L16.1817 60.0001C16.7817 58.6251 17.7067 52.3251 18.2387 46.0001C19.7647 27.8351 25.2167 18.8901 36.9087 15.3721C48.0847 12.0081 62.7257 14.4741 79.9567 22.6231C92.9357 28.7611 96.8447 30.3881 95.6477 29.1551C93.8027 27.2551 70.4407 16.0001 68.3407 16.0001C67.1997 16.0001 65.9917 15.5571 65.6567 15.0151C65.3227 14.4741 64.0587 14.0491 62.8477 14.0721C61.6377 14.0941 58.6227 13.6571 56.1477 13.1001C51.4987 12.0541 43.1537 11.8631 39.6477 12.7221ZM166.148 13.7811C166.148 14.2111 163.908 16.9111 161.17 19.7811C158.433 22.6521 156.539 25.0001 156.962 25.0001C157.733 25.0001 164.599 18.0411 167.076 14.7501C167.963 13.5721 168.026 13.0001 167.27 13.0001C166.653 13.0001 166.148 13.3521 166.148 13.7811ZM47.1477 16.9651C38.1347 17.7621 32.7487 20.3121 27.7547 26.1461C22.6917 32.0611 23.2497 33.0801 28.5327 27.5661C34.2287 21.6211 40.2157 19.0061 48.6227 18.7901C52.6527 18.6861 55.6407 18.1111 56.3057 17.3101C57.1147 16.3351 57.0417 16.0391 56.0197 16.1511C55.2657 16.2341 51.2727 16.6001 47.1477 16.9651ZM175.272 20.3201C173.637 22.6961 169.678 26.6091 166.474 29.0171C158.444 35.0501 158.492 35.0001 160.777 35.0001C165.423 35.0001 176.763 24.7191 177.502 19.8371C177.613 19.1021 178.056 17.9381 178.485 17.2501C178.915 16.5631 179.036 16.0001 178.755 16.0001C178.474 16.0001 176.907 17.9441 175.272 20.3201ZM98.1477 31.0001C98.9727 31.5331 100.098 31.9691 100.648 31.9691C101.198 31.9691 100.973 31.5331 100.148 31.0001C99.3227 30.4671 98.1977 30.0311 97.6477 30.0311C97.0977 30.0311 97.3227 30.4671 98.1477 31.0001ZM177.799 35.2501C176.268 36.4871 173.583 38.0671 171.832 38.7591L168.648 40.0181L171.648 39.3841C173.298 39.0341 175.211 38.7301 175.898 38.7081C176.586 38.6851 177.148 38.2171 177.148 37.6671C177.148 37.1171 177.427 36.9451 177.767 37.2861C178.108 37.6271 176.87 40.9611 175.017 44.6961C171.121 52.5501 162.95 61.5291 158.752 62.5711C156.148 63.2181 138.024 60.3241 132.585 58.3931C131.23 57.9121 130.949 58.0281 131.648 58.7781C133.138 60.3771 147.85 63.8911 150.333 63.2411C152.128 62.7721 152.365 62.9951 151.757 64.5891C151.174 66.1221 151.279 66.2531 152.289 65.2501C152.981 64.5631 154.83 64.0001 156.398 64.0001C160.489 64.0001 164.076 61.8561 169.217 56.3371C173.538 51.6981 179.25 41.4241 180.684 35.7141C181.509 32.4251 181.33 32.3961 177.799 35.2501ZM42.0867 35.6431C39.6527 37.1551 35.1477 42.8051 35.1477 44.3471C35.1477 44.7441 36.5977 43.4181 38.3707 41.3991C40.1427 39.3811 43.4057 36.9221 45.6207 35.9351C49.0517 34.4071 49.2777 34.1351 47.1477 34.0971C45.7727 34.0731 43.4957 34.7691 42.0867 35.6431ZM108.961 34.6831C109.682 34.9721 110.545 34.9361 110.877 34.6041C111.209 34.2721 110.619 34.0361 109.565 34.0791C108.4 34.1271 108.163 34.3641 108.961 34.6831ZM114.148 35.0001C114.148 35.5501 114.625 36.0001 115.207 36.0001C115.789 36.0001 115.988 35.5501 115.648 35.0001C115.308 34.4501 114.832 34.0001 114.589 34.0001C114.346 34.0001 114.148 34.4501 114.148 35.0001ZM65.5777 41.5001C67.6797 43.4251 69.7597 45.0001 70.1997 45.0001C70.6407 45.0001 71.1467 45.7501 71.3247 46.6681C71.6467 48.3291 76.1477 49.4171 76.1477 47.8331C76.1477 47.3751 75.7837 47.0001 75.3377 47.0001C74.8927 47.0001 72.1557 44.9751 69.2567 42.5001C63.0697 37.2191 59.9907 36.3821 65.5777 41.5001ZM99.8437 42.4361C104.881 44.1231 121.148 45.9271 121.148 44.7981C121.148 44.3591 119.236 43.9971 116.898 43.9941C113.06 43.9891 106.992 43.1941 98.6477 41.6031C96.8827 41.2671 97.3747 41.6101 99.8437 42.4361ZM129.328 41.9901C127.502 42.4231 125.139 42.5491 124.078 42.2711C123.016 41.9941 122.148 42.2391 122.148 42.8161C122.148 44.5481 125.913 45.1961 128.36 43.8861C129.619 43.2131 130.756 42.7251 130.888 42.8031C131.019 42.8801 132.144 42.5351 133.388 42.0351C136.125 40.9351 133.891 40.9111 129.328 41.9901ZM65.9257 46.5891C67.7287 47.5181 69.4917 47.9901 69.8427 47.6391C70.7717 46.7091 70.0657 46.3131 66.1477 45.5681L62.6477 44.9011L65.9257 46.5891ZM52.7847 49.3791C53.8087 50.7841 56.2227 52.6461 58.1477 53.5151C60.0727 54.3851 62.4127 55.5151 63.3467 56.0251C64.2817 56.5361 66.4287 57.1971 68.1177 57.4951L71.1897 58.0361L68.9307 54.5901C67.6877 52.6941 66.4897 51.3251 66.2667 51.5471C66.0447 51.7701 66.4407 52.6481 67.1477 53.5001C67.8547 54.3521 68.2167 55.2641 67.9527 55.5291C67.1897 56.2921 61.1477 53.9071 61.1477 52.8431C61.1477 52.3151 60.7537 52.1251 60.2727 52.4231C59.7917 52.7201 57.4907 51.5821 55.1597 49.8931C51.1067 46.9581 51.0027 46.9351 52.7847 49.3791ZM162.403 52.5481C156.314 57.0731 156.25 57.0931 149.965 56.5131C146.491 56.1921 141.915 55.4651 139.797 54.8991C137.679 54.3321 135.736 54.0791 135.478 54.3361C135.221 54.5941 139.429 55.7791 144.829 56.9691C150.23 58.1601 155.149 59.2921 155.762 59.4841C156.374 59.6761 159.749 57.1921 163.262 53.9641C166.774 50.7351 169.395 48.0731 169.086 48.0471C168.776 48.0211 165.769 50.0471 162.403 52.5481ZM45.6147 52.5001C48.3517 57.0681 51.1067 59.7861 55.7647 62.5161C60.6287 65.3661 62.1477 65.6081 62.1477 63.5311C62.1477 62.7061 61.5537 62.2911 60.7917 62.5831C59.2547 63.1731 51.1097 57.4311 46.7317 52.6711L43.8157 49.5001L45.6147 52.5001ZM26.6907 51.9311C26.3737 52.4431 26.5727 53.1441 27.1317 53.4901C27.6907 53.8351 28.1477 53.4161 28.1477 52.5591C28.1477 50.8021 27.5477 50.5441 26.6907 51.9311ZM25.7187 57.5711C25.3517 59.0371 25.2437 60.4291 25.4787 60.6651C25.7147 60.9001 26.2087 59.8941 26.5767 58.4291C26.9437 56.9631 27.0517 55.5711 26.8167 55.3351C26.5807 55.1001 26.0867 56.1061 25.7187 57.5711ZM95.1477 56.1671C95.1477 56.8081 95.4237 57.0571 95.7617 56.7191C96.0997 56.3821 98.6867 57.7791 101.512 59.8241C115.505 69.9571 120.956 72.0001 133.996 72.0001C138.663 72.0001 142.17 71.6891 141.79 71.3091C141.41 70.9281 138.419 70.6571 135.144 70.7051C129.629 70.7861 119.981 68.7471 117.648 67.0071C117.098 66.5961 114.961 65.7171 112.898 65.0531C110.836 64.3881 109.148 63.4031 109.148 62.8631C109.148 62.3241 108.755 62.1251 108.274 62.4221C107.793 62.7191 106.279 61.9581 104.909 60.7311C103.539 59.5041 101.795 58.3521 101.033 58.1711C100.271 57.9901 98.9377 57.2031 98.0687 56.4211C96.1517 54.6951 95.1477 54.6081 95.1477 56.1671ZM38.1477 56.4151C38.1477 59.7551 47.9867 71.1911 51.3587 71.7681C52.4877 71.9621 53.0557 70.9851 53.3947 68.2681C53.9797 63.5721 53.3807 62.5841 52.5297 66.8401C52.1817 68.5781 51.5977 70.0001 51.2307 70.0001C50.4107 70.0001 43.2597 62.5441 40.3117 58.6151C39.1217 57.0281 38.1477 56.0381 38.1477 56.4151ZM90.8177 58.3441C92.0687 60.5351 102.357 67.9891 103.314 67.3981C103.772 67.1141 104.148 67.3801 104.148 67.9891C104.148 69.2461 110.227 72.0691 111.388 71.3521C111.806 71.0931 112.148 71.3261 112.148 71.8691C112.148 74.1501 123.598 77.3061 132.879 77.5831C141.366 77.8371 142.581 77.6241 147.939 74.9471C153.508 72.1641 159.675 67.0001 157.429 67.0001C156.842 67.0001 156.12 67.6321 155.823 68.4041C155.527 69.1761 152.226 71.3131 148.487 73.1541C142.509 76.0971 140.734 76.5001 133.752 76.5001C128.27 76.5001 125.685 76.1111 125.396 75.2441C125.166 74.5531 124.625 74.2051 124.195 74.4711C123.282 75.0351 111.206 70.4581 109.741 68.9931C109.195 68.4471 107.938 68.0001 106.948 68.0001C105.958 68.0001 105.148 67.6051 105.148 67.1211C105.148 66.6381 103.717 65.6501 101.968 64.9251C100.219 64.2011 96.8077 62.0971 94.3877 60.2491C91.9677 58.4021 90.3607 57.5451 90.8177 58.3441ZM21.6887 58.9331C21.3267 59.5201 21.3937 60.0071 21.8387 60.0151C22.2837 60.0241 22.1127 60.3711 21.4587 60.7871C20.8047 61.2021 20.0367 62.8261 19.7527 64.3941C19.4687 65.9621 18.5407 68.0131 17.6917 68.9511C16.8427 69.8901 16.1477 71.0371 16.1477 71.5001C16.1477 71.9631 15.3727 73.1991 14.4257 74.2451C13.0657 75.7481 13.0137 76.0801 14.1757 75.8241C15.0457 75.6331 15.5147 76.1021 15.3237 76.9721C15.0817 78.0701 15.5277 77.9671 17.0737 76.5671C19.3467 74.5101 19.9647 73.0771 17.8057 74.8691C15.1147 77.1021 15.3547 74.6971 18.2167 70.7461C19.8317 68.5161 21.6317 64.9161 22.2167 62.7451C23.2617 58.8631 22.9817 56.8411 21.6887 58.9331ZM81.6477 59.0001C81.9877 59.5501 82.4637 60.0001 82.7067 60.0001C82.9497 60.0001 83.1477 59.5501 83.1477 59.0001C83.1477 58.4501 82.6707 58.0001 82.0887 58.0001C81.5067 58.0001 81.3077 58.4501 81.6477 59.0001ZM78.1147 62.0001C82.6887 68.7261 93.4347 78.0091 100.753 81.5561C104.661 83.4501 108.936 84.9611 110.253 84.9141C112.559 84.8311 112.548 84.7981 109.939 84.0121C104.171 82.2731 82.6447 67.7711 83.4687 66.1801C83.6627 65.8061 82.0017 63.9251 79.7777 62.0001L75.7347 58.5001L78.1147 62.0001ZM83.1477 61.3911C83.1477 61.6071 86.2777 64.8171 90.1027 68.5271C98.6597 76.8251 102.204 79.0441 109.148 80.4571C112.213 81.0811 111.964 80.8171 107.148 78.3351C104.123 76.7761 101.423 75.2741 101.148 74.9971C100.873 74.7211 98.1587 72.6051 95.1157 70.2941C92.0737 67.9841 88.5077 64.9471 87.1917 63.5471C85.0757 61.2941 83.1477 60.2671 83.1477 61.3911ZM31.2347 66.0001C31.1647 69.2291 35.2177 76.3901 37.3467 76.8001C38.5317 77.0281 38.8517 76.5841 38.4927 75.2101C38.2187 74.1621 38.7257 71.5511 39.6207 69.4091L41.2487 65.5151L39.1977 67.7161C37.9957 69.0061 37.1447 71.2791 37.1417 73.2081L37.1357 76.5001L35.5347 73.5001C34.6547 71.8501 33.3387 68.9251 32.6117 67.0001C31.4477 63.9201 31.2817 63.8001 31.2347 66.0001ZM21.8427 68.5131C20.9287 70.4311 20.3867 72.0001 20.6377 72.0001C21.3227 72.0001 24.3577 65.8771 23.9007 65.4201C23.6837 65.2031 22.7577 66.5941 21.8427 68.5131ZM69.7287 69.0001C71.8617 72.8311 76.4517 78.9141 80.4087 83.1521C84.8447 87.9041 92.1447 91.1111 98.0797 90.9151C99.6787 90.8621 98.7247 90.3631 95.5517 89.5931C89.0157 88.0061 85.9777 85.7851 76.5737 75.7191C72.3497 71.1991 69.2697 68.1751 69.7287 69.0001ZM75.4857 70.5631C77.6277 74.8801 86.0397 84.0081 88.8667 85.0831C90.1697 85.5791 92.4537 86.2341 93.9417 86.5391C96.2497 87.0131 96.0997 86.7921 92.9217 85.0361C90.8727 83.9031 85.7687 79.4951 81.5807 75.2381C76.1567 69.7261 74.4037 68.3811 75.4857 70.5631ZM43.1567 76.8551C43.1307 80.6521 52.4817 95.5301 54.2197 94.4551C54.7377 94.1351 55.3987 94.4901 55.6877 95.2431C56.0057 96.0731 57.8757 96.6611 60.4307 96.7351C63.6977 96.8291 64.0847 96.6921 62.1477 96.1271C59.7837 95.4361 59.7527 95.3371 61.5687 94.3121C63.3597 93.3031 63.2757 93.1181 60.3427 91.6011C58.6107 90.7051 54.9337 86.9871 52.1707 83.3371C49.4077 79.6881 47.1477 77.0121 47.1477 77.3911C47.1477 78.6511 51.1027 85.8541 52.1497 86.5011C52.7167 86.8521 52.9737 87.4731 52.7207 87.8821C52.4677 88.2921 54.0607 89.7931 56.2597 91.2201C58.6917 92.7971 59.8207 94.0841 59.1407 94.5041C58.5247 94.8851 57.1497 94.4071 56.0847 93.4431C55.0197 92.4791 54.1477 92.0481 54.1477 92.4851C54.1477 93.5071 49.9197 87.2751 46.1247 80.6581C44.4977 77.8211 43.1627 76.1101 43.1567 76.8551ZM63.6707 77.9641C63.3067 78.5521 62.5907 78.7741 62.0787 78.4571C58.6577 76.3431 65.7497 87.5951 69.7717 90.6631C72.0357 92.3901 74.7347 93.3621 77.9037 93.5931L82.6477 93.9391L78.1477 93.0131C74.5097 92.2631 72.6427 90.9941 68.3977 86.3811C65.5097 83.2431 63.1477 80.2991 63.1477 79.8381C63.1477 78.1191 64.9757 79.0891 66.7027 81.7241C69.3277 85.7301 71.2687 87.5531 74.8477 89.3731C80.2457 92.1171 80.6437 91.1811 75.5377 87.7501C72.8777 85.9631 69.6497 82.9251 68.3647 81.0001C65.7617 77.1011 64.6477 76.3811 63.6707 77.9641ZM113.621 81.0441C113.296 81.5701 113.957 82.0001 115.089 82.0001C117.504 82.0001 117.747 81.4441 115.68 80.6511C114.873 80.3411 113.946 80.5181 113.621 81.0441ZM35.1477 81.3971C35.1477 84.9991 42.3287 94.9641 46.5347 97.1991C47.9377 97.9451 47.4157 96.9541 44.9807 94.2501C42.9627 92.0101 40.7587 89.1251 40.0807 87.8381C38.5557 84.9421 35.1477 80.4931 35.1477 81.3971ZM125.148 82.5001C123.773 83.2861 123.124 83.9451 123.707 83.9651C124.289 83.9841 125.639 83.3391 126.707 82.5321C129.176 80.6641 128.387 80.6481 125.148 82.5001ZM31.1477 82.7981C31.1477 85.6171 35.7707 93.5241 39.5307 97.1371C41.7557 99.2751 45.1667 101.466 47.1117 102.007C51.3117 103.173 56.1487 103.304 56.1447 102.25C56.1427 101.838 54.1457 101.489 51.7067 101.475C45.8697 101.443 41.0557 97.5971 35.3977 88.4481C33.0607 84.6671 31.1477 82.1251 31.1477 82.7981ZM21.1627 87.5001C23.8347 92.5741 24.8787 93.8781 28.9747 97.2561C34.7147 101.991 34.3477 100.248 28.3407 94.2501C25.1737 91.0881 21.7887 87.3751 20.8197 86.0001C19.6817 84.3861 19.8027 84.9181 21.1627 87.5001ZM118.898 84.6621C119.586 84.9401 120.711 84.9401 121.398 84.6621C122.086 84.3851 121.523 84.1581 120.148 84.1581C118.773 84.1581 118.211 84.3851 118.898 84.6621ZM113.961 85.6831C114.682 85.9721 115.545 85.9361 115.877 85.6041C116.209 85.2721 115.619 85.0361 114.565 85.0791C113.4 85.1271 113.163 85.3641 113.961 85.6831ZM103.648 89.0001C102.018 89.7011 101.96 89.8721 103.339 89.9301C104.269 89.9681 105.308 89.5501 105.648 89.0001C106.359 87.8501 106.324 87.8501 103.648 89.0001ZM17.1477 90.6791C17.1477 92.8351 24.6897 100.241 29.2267 102.54C35.0827 105.508 40.1857 105.842 40.0687 103.25C40.0217 102.205 39.7867 102.003 39.4857 102.75C39.2077 103.438 38.2067 104 37.2607 104C33.8137 104 25.0717 98.7201 21.1587 94.2751C18.9527 91.7691 17.1477 90.1511 17.1477 90.6791Z" fill="#F5F5F5"/>
</svg>
